<?xml version="1.0" encoding="utf-8"?>
<!-- Generator: Adobe Illustrator 21.0.0, SVG Export Plug-In . SVG Version: 6.00 Build 0)  -->
<svg version="1.1" id="Capa_1" xmlns="http://www.w3.org/2000/svg" xmlns:xlink="http://www.w3.org/1999/xlink" x="0px" y="0px"
	 viewBox="0 0 198.5 198.5" style="enable-background:new 0 0 198.5 198.5;" xml:space="preserve">
<style type="text/css">
	.st0{fill:#355C75;}
	.st1{clip-path:url(#SVGID_2_);}
	.st2{fill:#FDCC9B;}
	.st3{fill:#FCBC85;}
	.st4{fill:#3B2519;}
	.st5{fill:#FFFFFF;}
	.st6{fill:#51362A;}
	.st7{fill:#F7945E;}
	.st8{fill:#F7941E;}
	.st9{fill:#F36C21;}
</style>
<circle class="st0" cx="-281.3" cy="72.4" r="114"/>
<g>
	<defs>
		<circle id="SVGID_1_" cx="-281.3" cy="72.4" r="114"/>
	</defs>
	<clipPath id="SVGID_2_">
		<use xlink:href="#SVGID_1_"  style="overflow:visible;"/>
	</clipPath>
	<g class="st1">
		<g>
			<rect x="-296.4" y="137.8" class="st2" width="29.4" height="32.9"/>
			<path class="st3" d="M-296.4,141.7c0,0,12.4,7.9,29.4,6.1v-9.9h-29.4V141.7z"/>
			<ellipse class="st3" cx="-338.8" cy="86.8" rx="14.3" ry="16.4"/>
			<ellipse class="st3" cx="-224.6" cy="86.8" rx="14.3" ry="16.4"/>
			<path class="st2" d="M-224.7,55.5c0-24.1-17.6-41.7-57-41.7s-57,17.6-57,41.7s-4.1,87.6,57,87.6S-224.7,79.6-224.7,55.5z"/>
			<g>
				<g>
					<ellipse class="st4" cx="-309.5" cy="82.9" rx="6.2" ry="6.8"/>
					<circle class="st5" cx="-312.2" cy="79.9" r="1.8"/>
				</g>
				<path class="st6" d="M-319.4,66.1c2.9,1.5,7.6-5,18.3,0.6c2,1,3.1-8.7-8.4-8.7C-319.4,58-321.1,65.2-319.4,66.1z"/>
				<g>
					<ellipse class="st4" cx="-253.2" cy="82.9" rx="6.2" ry="6.8"/>
					<circle class="st5" cx="-255.9" cy="79.9" r="1.8"/>
				</g>
				<path class="st6" d="M-244.1,66.1c-2.9,1.5-7.6-5-18.3,0.6c-2,1-3.1-8.7,8.4-8.7C-244.1,58-242.3,65.2-244.1,66.1z"/>
			</g>
			<path class="st3" d="M-281.7,106.6c-6.1,0-9.8-4.6-9.8-2.4c0,2.2,1.8,6.4,9.8,6.4s9.8-4.2,9.8-6.4
				C-271.9,102.1-275.6,106.6-281.7,106.6z"/>
			<path class="st3" d="M-281.7,126.9c-2.1,0-3.4-1.6-3.4-0.8s0.6,2.2,3.4,2.2s3.4-1.4,3.4-2.2S-279.6,126.9-281.7,126.9z"/>
			<path class="st7" d="M-281.7,121.3c-9.7,0-15.5-3.9-15.5-2.9s2.8,4.9,15.5,4.9s15.5-3.9,15.5-4.9
				C-266.2,117.4-272,121.3-281.7,121.3z"/>
		</g>
		<path class="st8" d="M-281.7,151.1v37h-71.4C-353.1,173.1-315.5,151.1-281.7,151.1z"/>
		<path class="st8" d="M-281.7,151.1v37h71.4C-210.3,173.1-247.9,151.1-281.7,151.1z"/>
		<path class="st9" d="M-281.7,151.1c-7.2,0-14.6,1-21.7,2.7c0,0.1,7.9,10.2,21.7,10.2c12.8,0,21.2-8.7,22.5-10
			C-266.6,152.1-274.3,151.1-281.7,151.1z"/>
		<path class="st2" d="M-296.4,152.3c0,0,4.3,5.3,14.7,5.3c10.4,0,14.7-5.3,14.7-5.3S-282.3,146.8-296.4,152.3z"/>
		<path class="st6" d="M-234.8,8.6c0,0-21.2-26.9-65.2-16.8c-44,10.1-47.3,36.6-46,62.3c1.3,25.7,4.9,40.8,9,39
			c4.2-1.9,2-18.9,2.4-22.8s4.4-21.7,31.2-19c26.8,2.6,49.3-7.1,49.3-7.1s9.1,11.5,15,13.7c11.9,4.4,8,33.7,12.7,33.7
			S-198.7,24.1-234.8,8.6z"/>
	</g>
</g>
</svg>
