<?xml version="1.0" encoding="utf-8"?>
<!-- Generator: Adobe Illustrator 21.0.0, SVG Export Plug-In . SVG Version: 6.00 Build 0)  -->
<svg version="1.1" id="Layer_1" xmlns="http://www.w3.org/2000/svg" xmlns:xlink="http://www.w3.org/1999/xlink" x="0px" y="0px"
	 viewBox="0 0 512 512" style="enable-background:new 0 0 512 512;" xml:space="preserve">
<style type="text/css">
	.st0{fill:#F05053;}
	.st1{fill:#C64652;}
</style>
<path class="st0" d="M-542.5,148.2c-0.2-1.2-0.3-2.4-0.2-3.7c0-0.1,0-0.2,0-0.3c0-0.7-0.2-1.3-0.6-1.7c-0.7-0.8-1.3-1.7-1.8-2.6
	c-0.8-1.4-2.4-2.4-4.1-2.4c-0.1,0-0.3,0-0.4,0c-1.1,0.1-2.2-0.1-3.2-0.4c-1.3-0.4-2.6-0.6-3.9-0.6c-7.6,0-14.2,6.7-14.1,14.5
	c0,0.7,0.1,1.3,0.2,2c0.2,1.5,0.2,2.9-0.1,4.4c-0.2,1,0,2.1,0.7,3.1c0.4,0.6,0.9,1.1,1.5,1.5c0.7,0.4,1.3,0.9,1.8,1.5
	c0.7,0.8,1.8,1.9,3,1.8c0.2,0,0.5,0,0.7-0.1c1.4-0.3,2.9-0.3,4.3-0.1c0.7,0.1,1.4,0.2,2.1,0.2c7.9,0.1,14.4-6.2,14.5-14.1
	C-542.2,150.2-542.3,149.2-542.5,148.2z"/>
<g>
	<ellipse class="st0" cx="-566.2" cy="153.9" rx="2.1" ry="3"/>
	<ellipse class="st0" cx="-563.6" cy="159.8" rx="1.8" ry="1.2"/>
	<ellipse class="st0" cx="-546.8" cy="150.9" rx="2" ry="2.6"/>
</g>
<path class="st1" d="M-556.6,138.6c-3.4,0-6.6,1.3-8.9,3.8c-0.3,0.3-0.2,0.7,0,0.9c0.1,0.1,0.3,0.2,0.5,0.2c0.2,0,0.3-0.1,0.5-0.2
	c2.1-2.2,4.9-3.4,8-3.4c0.4,0,0.7-0.3,0.7-0.7C-555.9,138.9-556.2,138.6-556.6,138.6z"/>
<path class="st1" d="M-566.7,145c0.1,0.1,0.2,0.1,0.4,0.1c0.2,0,0.4-0.1,0.5-0.3l0,0c0.2-0.3,0.1-0.7-0.2-0.9
	c-0.3-0.2-0.7-0.1-0.9,0.2l0,0C-567.1,144.4-567,144.8-566.7,145z"/>
<path class="st1" d="M-541.9,148.1L-541.9,148.1c-0.2-1.1-0.3-2.3-0.1-3.5c0-0.1,0-0.3,0-0.4c0-0.8-0.3-1.6-0.8-2.2
	c-0.7-0.8-1.3-1.6-1.8-2.5c-0.9-1.7-2.8-2.7-4.7-2.7c-0.2,0-0.3,0-0.5,0c-1,0.1-2,0-3-0.3c-1.4-0.4-2.7-0.6-4.1-0.6
	c-1.9,0-3.8,0.4-5.6,1.2c-1.7,0.8-3.3,1.9-4.7,3.3c-1.4,1.4-2.5,3-3.3,4.9c-0.8,1.9-1.2,3.9-1.2,5.9c0,0.7,0.1,1.4,0.2,2.1
	c0.2,1.3,0.2,2.7-0.1,4.2c-0.2,1.1,0.1,2.4,0.8,3.5c0.4,0.7,1,1.3,1.7,1.7c0.6,0.4,1.2,0.8,1.6,1.4c0.8,0.9,2,2,3.4,2
	c0.1,0,0.1,0,0.2,0c0.3,0,0.5-0.1,0.8-0.1c1.3-0.3,2.7-0.3,4.1-0.1c0.7,0.1,1.5,0.2,2.2,0.2c0.1,0,0.1,0,0.2,0
	c8.2,0,14.9-6.6,15-14.8C-541.6,150.2-541.7,149.1-541.9,148.1z M-542.9,151.2c-0.1,7.5-6.2,13.5-13.7,13.5c-0.1,0-0.1,0-0.2,0
	c-0.7,0-1.3-0.1-2-0.2c-0.7-0.1-1.4-0.2-2.1-0.2c-0.8,0-1.7,0.1-2.5,0.3c-0.2,0-0.4,0.1-0.6,0.1c-0.7,0-1.6-0.5-2.5-1.6
	c-0.5-0.7-1.2-1.2-2-1.7c-0.5-0.3-0.9-0.7-1.3-1.3c-0.5-0.8-0.7-1.8-0.6-2.6c0.3-1.6,0.3-3.1,0.1-4.6c-0.1-0.6-0.1-1.2-0.1-1.9
	c0-3.6,1.4-7.1,4.1-9.8c2.6-2.6,6-4.1,9.4-4.1c1.3,0,2.5,0.2,3.7,0.6c1.2,0.4,2.4,0.5,3.5,0.4c0.1,0,0.2,0,0.3,0
	c1.5,0,2.9,0.8,3.6,2c0.6,1,1.2,1.9,1.9,2.7c0.3,0.3,0.5,0.8,0.5,1.3c0,0.1,0,0.2,0,0.2c-0.1,1.3-0.1,2.6,0.2,3.9
	C-543,149.3-542.9,150.2-542.9,151.2z"/>
<path class="st1" d="M-564.2,156.4c0.5-0.7,0.7-1.5,0.7-2.5c0-0.9-0.3-1.8-0.7-2.5c-0.5-0.7-1.3-1.1-2-1.1c-0.8,0-1.5,0.4-2,1.1
	c-0.5,0.7-0.7,1.5-0.7,2.5c0,0.9,0.3,1.8,0.7,2.5c0.5,0.7,1.3,1.1,2,1.1C-565.4,157.5-564.7,157.1-564.2,156.4z M-566.2,156.2
	c-0.8,0-1.5-1.1-1.5-2.3s0.7-2.3,1.5-2.3c0.8,0,1.5,1.1,1.5,2.3C-564.7,155.2-565.4,156.2-566.2,156.2z"/>
<path class="st1" d="M-563.6,157.9c-1.4,0-2.4,0.8-2.4,1.9c0,1.1,1.1,1.9,2.4,1.9c1.4,0,2.4-0.8,2.4-1.9
	C-561.1,158.7-562.2,157.9-563.6,157.9z M-563.6,160.4c-0.7,0-1.1-0.3-1.1-0.6s0.4-0.6,1.1-0.6s1.1,0.3,1.1,0.6
	S-562.9,160.4-563.6,160.4z"/>
<path class="st1" d="M-546.8,147.7c-1.4,0-2.6,1.5-2.6,3.3s1.2,3.3,2.6,3.3c1.4,0,2.6-1.5,2.6-3.3S-545.4,147.7-546.8,147.7z
	 M-546.8,152.9c-0.7,0-1.3-0.9-1.3-2c0-1.1,0.6-2,1.3-2c0.7,0,1.3,0.9,1.3,2C-545.5,152-546.1,152.9-546.8,152.9z"/>
</svg>
