<?xml version="1.0" encoding="iso-8859-1"?>
<!-- Generator: Adobe Illustrator 18.1.1, SVG Export Plug-In . SVG Version: 6.00 Build 0)  -->
<svg xmlns="http://www.w3.org/2000/svg" xmlns:xlink="http://www.w3.org/1999/xlink" version="1.1" id="Capa_1" x="0px" y="0px" viewBox="0 0 262.863 262.863" style="enable-background:new 0 0 262.863 262.863;" xml:space="preserve" width="512px" height="512px">
<g>
	<path d="M237.122,102.636v-1.771c10.303-1.184,18.074-2.286,23.31-3.294l0,0h-3.038l-31.934,2.28   c-1.184,0.17-3.719-0.588-7.607-2.28c-5.746-2.536-10.516-6.803-14.316-12.805c-3.801-5.985-5.701-12.203-5.701-18.624   c0-8.105,2.612-14.776,7.856-20.021l-1.019-0.757c12.842-14.536,20.193-23.068,22.057-25.601   c-9.977,9.974-17.41,17.573-22.309,22.817c-3.38,3.375-5.916,5.994-7.604,7.853c-3.888,3.212-9.632,4.813-17.238,4.813   c-14.349,0-25.171-5.994-32.435-17.998c-1.863-3.379-2.878-5.832-3.039-7.354c-0.173-15.198-0.511-25.16-1.023-29.894   c-0.671,9.795-1.009,17.147-1.009,22.044h-1.271c-0.338,9.292-3.719,17.149-10.132,23.57c-6.418,6.424-14.277,9.631-23.574,9.631   c-8.954,0-16.638-3.465-23.056-10.395v-0.254l-0.758,0.516C69.596,30.58,62.076,22.891,60.723,22.044   c5.907,6.93,11.91,13.855,18,20.781c7.423,8.622,11.143,16.387,11.143,23.315c0,9.3-3.423,17.408-10.266,24.334   c-6.835,6.921-14.824,10.389-23.948,10.389c-1.352,0-2.791-0.083-4.307-0.251l-0.502-0.513c-0.349,0.681-0.599,1.015-0.765,1.015   l-40.297-2.28H2.43c20.106,2.203,35.142,3.638,45.113,4.309l9.118,0.758c6.587,2.038,11.756,6.004,15.468,11.915   c3.705,5.92,5.57,12.421,5.57,19.516c0,9.968-2.7,17.401-8.104,22.303c-4.226,3.038-7.52,5.317-9.892,6.839   c-5.911,3.721-11.736,7.438-17.482,11.146c-6.931,4.57-12.334,8.713-16.229,12.43l-1.265,1.268   c16.735-10.306,29.15-18.251,37.255-23.824l0.26,0.251c5.739-3.206,11.404-4.815,16.977-4.815c9.287,0,17.282,3.422,23.953,10.262   c6.673,6.848,10.018,14.915,10.018,24.213c0,2.863-1.193,8.107-3.55,15.709c-2.708,8.447-4.312,14.017-4.824,16.727   c4.394-11.659,7.611-20.613,9.635-26.868c5.743-10.978,15.458-16.478,29.141-16.478c0.411,0,0.802,0.028,1.205,0.039   c-0.053-0.416-0.104-0.84-0.157-1.276c-0.265-0.005-0.524-0.02-0.792-0.02c-12,0-21.458,4.98-28.383,14.938   c3.883-12.315,6.848-21.53,8.863-27.617c4.737-4.891,10.142-7.35,16.231-7.35c0.731,0,1.45,0.023,2.155,0.07   c-0.035-0.431-0.069-0.862-0.104-1.296c-0.511-0.025-1.025-0.044-1.548-0.044c-6.26,0-11.66,2.377-16.218,7.104   c2.191-7.104,3.799-12.423,4.809-15.976c3.174-3.003,7.166-4.582,11.969-4.77c-0.021-0.335-0.044-0.669-0.065-1.004   c-4.27,0.271-8.069,1.684-11.402,4.252c2.372-7.424,4.148-13.089,5.327-16.976c1.785-1.273,3.525-2.068,5.215-2.382   c-0.017-0.33-0.031-0.654-0.047-0.98c-1.675,0.281-3.229,0.888-4.655,1.839c0.502-2.198,1.138-4.513,1.896-6.972   c0.496-1.598,1.307-2.667,2.417-3.222c-0.011-0.317-0.021-0.629-0.03-0.939c-0.444,0.198-0.866,0.433-1.24,0.741   c0.419-1.465,0.793-2.855,1.146-4.209c-0.026-1.221-0.045-2.363-0.053-3.416l-2.363,6.354c-0.686-2.69-2.449-4.046-5.322-4.046   l7.7-5.623c0.007-0.353,0.016-0.691,0.026-1.006l-6.969,4.339c0.169-2.357-0.424-4.218-1.773-5.57l1.015-0.506   c2.196,0.339,4.896,0.42,8.113,0.251l0.461,0.469c0.219-0.037,0.466-0.069,0.729-0.097l-0.187-0.372h0.508l-1.008-0.251   c-2.198-2.695-3.889-4.728-5.067-6.081c2.531,0.338,4.728-0.511,6.587-2.539c0.34,3.389,0.498,5.924,0.498,7.606   c0.347-0.503,0.6-2.695,0.768-6.593c1.354,1.193,2.873,1.778,4.559,1.778l0.764-0.252c-2.029,2.701-3.545,4.646-4.563,5.829   l-2.264,0.824c0.236-0.017,0.472-0.03,0.701-0.039l0.036-0.027l0.008,0.026c0.134-0.005,0.264-0.008,0.39-0.01l-0.136-0.271   c2.535,0.169,5.577,0.087,9.127-0.251l1.261,0.506c-1.353,1.353-2.022,2.792-2.022,4.309l0.254,1.261   c-3.181-1.651-5.604-2.975-7.288-3.966c-0.005,0.208-0.01,0.42-0.013,0.643l7.549,5.359c-1.864,0.174-3.383,1.093-4.561,2.788   l-2.993-7.609c-0.008,0.83-0.006,1.745,0.005,2.735l1.975,6.898v0.505c-0.653-0.287-1.252-0.503-1.814-0.671   c0.015,0.433,0.03,0.873,0.047,1.319c0.942,0.542,1.705,1.416,2.274,2.646l0.763-0.255l2.535,8.374   c-1.474-1.348-3.211-2.201-5.213-2.573c0.02,0.407,0.041,0.816,0.062,1.228c2.981,0.92,5.374,3.307,7.18,7.165   c0.33,0.682,1.769,5.159,4.31,13.433h-0.001c-3.099-3.092-6.637-4.937-10.596-5.567c0.023,0.352,0.047,0.704,0.071,1.056   c6.089,0.998,10.274,4.609,12.543,10.852h0.262l5.065,15.46c-4.446-6.667-10.06-10.745-16.83-12.255   c0.037,0.463,0.075,0.924,0.113,1.382c8.257,1.986,14.343,7.795,18.239,17.461l0.758-0.251l5.584,15.965   c-5.954-7.792-13.516-12.301-22.68-13.557c0.051,0.43,0.103,0.853,0.153,1.261c5.807,0.779,10.698,2.766,14.663,5.965   c3.893,3.197,7.437,8.36,10.649,15.46c2.694,6.414,5.322,12.756,7.853,19.004c0.165-0.849-1.102-5.316-3.801-13.435   c-2.705-8.109-4.052-13.089-4.052-14.943c0-9.804,3.17-18.215,9.497-25.228c6.34-7.002,14.322-10.508,23.951-10.508   c5.232,0,10.906,1.596,16.98,4.812l0.766-1.271c14.02,8.452,22.046,13.185,24.078,14.194c-3.221-2.7-8.666-6.418-16.35-11.157   c-7.693-4.723-12.97-8.359-15.844-10.895c-5.235-4.396-7.853-11.572-7.853-21.54c0-8.283,2.485-15.551,7.474-21.796   C222.452,107.287,229.005,103.655,237.122,102.636z M107.097,57.527c7.95,0,15.295-2.492,22.052-7.483   c6.756-4.982,11.064-11.28,12.923-18.875h0.001v14.698c-0.169,6.256-2.95,11.743-8.361,16.473   c-5.403,4.728-11.319,7.103-17.733,7.103c-6.768,0-12.089-2.453-15.977-7.36L99.5,62.34l-7.862-8.362   C96.877,56.341,102.031,57.527,107.097,57.527z M119.01,108.471l8.616,0.25l0.256,1.014l0.252,0.261   c2.197,0.16,3.297,1.595,3.297,4.294c0,1.362-1.36,3.047-4.056,5.08c-2.198,1.179-4.304,2.366-6.332,3.535   c0.84-1.859,1.27-3.704,1.27-5.567C122.313,113.619,121.208,110.667,119.01,108.471z M120.787,117.588   c0,3.217-2.028,6.423-6.08,9.631c-3.385,2.202-6.765,4.478-10.141,6.849c2.188-3.719,3.293-7.521,3.293-11.413   c0-6.582-2.448-11.741-7.346-15.45h0.759c5.403,0,10.224,0.333,14.445,1.009C119.093,110.914,120.787,114.035,120.787,117.588z    M98.235,138.37l-5.072,3.303c3.038-4.909,4.559-9.977,4.559-15.212c0-8.955-3.458-15.629-10.388-20.028   c12.667-0.156,19.004,5.332,19.004,16.473l0,0c0,6.429-2.786,11.408-8.365,14.953L98.235,138.37z M105.578,72.475   c4.565,4.903,6.849,9.548,6.849,13.948c0,5.236-2.029,9.667-6.089,13.304c-4.051,3.627-8.616,5.026-13.683,4.175l-0.25,0.512   l-5.327-0.512c5.742-1.682,10.397-4.811,13.938-9.375c3.55-4.562,5.322-9.798,5.322-15.71   C106.338,76.788,106.086,74.673,105.578,72.475z M106.086,69.69c3.042,1.346,6.415,2.023,10.139,2.023   c11.991,0,20.53-5.482,25.596-16.468v9.884c0,4.226-1.987,7.817-5.952,10.767c-3.975,2.961-8.242,4.438-12.797,4.438   c-4.062,0-7.354-1.015-9.881-3.041C112.848,77.126,110.478,74.591,106.086,69.69z M113.433,104.91l-1.26-0.25l-0.256,1.279   l-10.142-1.029c8.624-3.196,12.933-9.379,12.933-18.488c0-0.849-0.174-2.371-0.512-4.567c4.056,4.394,7.094,7.688,9.128,9.881   l0.251,2.279c0,2.883-1.015,5.413-3.044,7.606C118.508,103.824,116.138,104.91,113.433,104.91z M123.324,86.163l-1.271,1.019   l-4.815-5.327c2.536,0.505,4.565,0.762,6.086,0.762c8.446,0,14.701-3.385,18.748-10.142v7.095h-0.508   c-0.5,6.593-4.221,9.892-11.15,9.892C127.037,89.462,124.671,88.365,123.324,86.163z M83.655,89.077   c5.487-7.007,8.238-14.65,8.238-22.936c0-3.211-0.503-6.499-1.521-9.879c3.207,3.207,6.345,6.497,9.383,9.879   c2.864,3.886,4.304,8.112,4.304,12.675c0,6.583-2.284,12.207-6.843,16.849c-4.56,4.65-10.051,6.971-16.469,6.971   c-1.695,0-2.877-0.077-3.544-0.255l-0.261,0.763l-13.692-1.01C71.362,100.438,78.169,96.09,83.655,89.077z M79.481,135.072   c0-14.354-5.665-24.578-16.991-30.658c8.791,0,15.543,0.497,20.276,1.526c3.718,1.01,6.848,3.664,9.383,7.977   c2.532,4.303,3.807,8.575,3.807,12.801c0,6.933-2.28,12.586-6.854,16.976c-1.009,1.183-6.076,4.811-15.203,10.9   C77.616,148.503,79.481,142.001,79.481,135.072z M113.683,195.904c0.339-1.352,0.261-3.554-0.25-6.586   c-1.179-8.279-5.107-15.336-11.782-21.165c-6.671-5.83-14.236-8.745-22.688-8.745c-3.207,0-6.674,0.59-10.389,1.781   c4.565-3.375,9.124-6.683,13.692-9.889c5.907-3.715,10.973-5.579,15.208-5.579c7.091,0,12.829,2.407,17.232,7.226   c4.385,4.816,6.582,10.683,6.582,17.611C121.289,171.739,118.76,180.191,113.683,195.904z M121.802,170.056   c0.334-7.603-1.988-13.773-6.967-18.51c-4.989-4.723-11.369-7.1-19.141-7.1c-1.353,0-2.362,0.178-3.039,0.515   c2.367-1.858,4.729-3.632,7.1-5.327c3.038-2.022,5.656-3.037,7.853-3.037c4.729,0,8.826,1.773,12.291,5.326   c3.465,3.541,5.188,7.768,5.188,12.67c0,0.507-0.118,1.389-0.374,2.662c-0.243,1.266-0.384,2.152-0.384,2.659v0.253l1.018-1.518   L121.802,170.056z M129.532,146.484c-1.947,6.08-3.339,9.717-4.185,10.9c0.338-1.02,0.508-2.116,0.508-3.299   c0-5.23-1.814-9.712-5.446-13.43c-3.637-3.721-8.154-5.583-13.559-5.583c7.767-5.396,12.331-8.525,13.682-9.376l2.029-0.255   c2.7,0,5.024,0.987,6.971,2.929c1.938,1.94,2.916,4.257,2.916,6.961C132.447,136.689,131.47,140.4,129.532,146.484z    M132.447,118.853c2.357,0,3.966,1.279,4.811,3.802l-4.053,12.417c0.334-2.526-0.639-5.016-2.915-7.474   c-2.283-2.449-4.605-3.587-6.966-3.422h-0.513l6.844-4.806l0.502,0.247C130.829,119.11,131.592,118.853,132.447,118.853z    M132.068,106.181c-0.764,1.024-1.48,1.521-2.157,1.521l-13.175-1.27c2.357-0.667,4.514-2.23,6.455-4.687   c1.942-2.45,2.829-4.935,2.665-7.48c3.038,3.221,5.321,5.583,6.848,7.1l0.502,2.028   C133.204,104.244,132.826,105.171,132.068,106.181z M140.049,108.721l-6.589-0.762c1.01-1.18,1.604-2.454,1.777-3.801   L140.049,108.721z M142.323,96.556h-0.759c-0.332,2.706-1.857,4.057-4.559,4.057c-1.184,0-2.279-0.416-3.294-1.266l-0.507,0.503   l-7.602-8.868c1.348,0.677,2.952,1.01,4.811,1.01c5.07,0,8.867-2.028,11.407-6.084l0.502-0.248v10.896H142.323z M198.593,52.202   c-2.025,4.219-3.039,8.872-3.039,13.938c0,7.608,2.151,14.495,6.46,20.656c4.312,6.168,9.923,10.773,16.854,13.815h-0.001   l-9.63,0.502c-6.757,0-12.545-2.439-17.36-7.347c-4.814-4.892-7.223-10.73-7.223-17.496c0-2.193,0.544-5.016,1.649-8.484   c1.097-3.455,2.403-5.45,3.925-5.949l-0.246-0.257L198.593,52.202z M169.446,124.432c-3.042-1.859-4.558-4.473-4.558-7.858   c0-6.748,5.74-10.141,17.23-10.141h1.02c-5.075,3.563-7.606,8.534-7.606,14.952c0,3.724,0.841,7.018,2.531,9.896l-9.116-5.583   l0.76-1.265L169.446,124.432L169.446,124.432z M164.635,122.906h-0.255c-2.202-1.169-4.314-2.443-6.341-3.796   c-2.7-1.851-4.049-3.457-4.049-4.819c0-2.368,1.088-3.797,3.284-4.294c0-0.17,0-0.43,0-0.772v-0.753l9.129-0.512   c-2.366,2.197-3.545,4.988-3.545,8.368C162.859,118.694,163.449,120.887,164.635,122.906z M179.577,104.413l-6.325,0.758v-0.512   c-3.048,0.347-5.743-0.457-8.114-2.402c-2.365-1.943-3.545-4.35-3.545-7.224c0-2.023,1.096-4.308,3.295-6.843   c1.862-1.859,3.713-3.806,5.576-5.83c-0.342,1.691-0.512,3.13-0.512,4.309C169.952,94.952,173.165,100.864,179.577,104.413z    M187.318,92.247c3.459,4.729,7.977,8.106,13.555,10.134l-14.957,1.521c-3.541,0.343-6.711-1.394-9.498-5.189   c-2.792-3.801-4.185-7.483-4.185-11.028c0-4.222,1.435-8.017,4.313-11.412v-0.247l6.592-7.1c-0.687,2.033-1.02,4.476-1.02,7.346   C182.119,82.193,183.85,87.52,187.318,92.247z M177.815,121.646c0-9.132,4.216-14.276,12.669-15.464l0.26-0.502l12.158-1.266   c-7.78,5.583-11.659,13.092-11.659,22.551c0,6.084,1.776,11.493,5.325,16.23c-7.775-4.902-12-7.693-12.672-8.374   C179.839,131.28,177.815,126.885,177.815,121.646z M144.361,36.997c3.373,6.428,8.27,11.445,14.697,15.077   c6.414,3.635,13.262,5.453,20.52,5.453c4.569,0,8.785-0.677,12.679-2.039l-4.061,4.313h-0.247   c-3.551,5.408-9.375,8.119-17.484,8.119c-6.596,0-12.595-2.198-17.994-6.598c-5.409-4.388-8.109-9.875-8.109-16.473v-7.852H144.361   z M144.361,54.994c5.226,10.305,13.938,15.453,26.104,15.453c3.203,0,6.42-0.589,9.631-1.777c-4.906,5.25-7.443,7.95-7.605,8.119   c-2.875,2.367-6.332,3.545-10.389,3.545c-4.564,0-8.662-1.554-12.299-4.693c-3.633-3.128-5.441-6.971-5.441-11.522v-9.125H144.361z    M144.361,72.728c4.047,6.592,10.471,9.89,19.261,9.89c0.502,0,1.937-0.256,4.304-0.762l-5.322,6.089l-0.759-0.512   c-1.187,2.029-3.298,3.042-6.331,3.042c-7.607,0-11.408-3.976-11.408-11.91L144.361,72.728z M145.119,108.721l4.56-4.563   c0.667,1.69,1.265,2.874,1.772,3.544L145.119,108.721z M148.161,100.613c-2.881,0-4.312-1.184-4.312-3.554l0.256-9.876   c3.377,3.708,7.173,5.567,11.408,5.567c0.163,0,0.666-0.086,1.521-0.25c0.502,0,0.922,0,1.265,0l0,0l-6.337,7.35l-0.511-0.503   C150.273,100.197,149.171,100.613,148.161,100.613z M152.972,105.939c-0.672-1.029-1.01-1.859-1.01-2.545   c0-1.174,1.01-2.781,3.033-4.815c1.362-1.351,2.797-2.699,4.312-4.052c-0.338,2.199,0.253,4.438,1.773,6.721   c1.521,2.279,3.299,3.843,5.322,4.692l-11.408,1.266C154.32,107.369,153.648,106.949,152.972,105.939z M151.962,131.778   l-3.555-9.626c0.513-2.02,1.938-3.042,4.309-3.042c0.845,0.174,1.604,0.422,2.279,0.763l0.262-0.763l5.824,4.057   c-1.863,0.178-3.76,1.179-5.701,3.042C153.438,128.07,152.3,129.928,151.962,131.778z M158.039,149.267   c-3.208-9.964-4.808-14.779-4.808-14.446c0-2.526,1.006-4.847,3.039-6.966c2.029-2.111,4.309-3.167,6.84-3.167   c0.511,0.177,0.844,0.25,1.013,0.25c6.588,4.222,11.487,7.438,14.7,9.631c0.001,0,0.002,0,0.002,0v0.001   c0,0-0.001-0.001-0.002-0.001c-5.07-0.17-9.501,1.019-13.307,3.545C161.712,140.656,159.218,144.373,158.039,149.267z    M164.634,168.279l-5.576-15.715c0.338-4.562,2.191-8.405,5.576-11.53c3.383-3.12,7.354-4.696,11.912-4.696   c3.709,0,9.633,2.709,17.742,8.109c-7.605,0.178-14.071,2.335-19.393,6.474C169.579,155.059,166.158,160.847,164.634,168.279z    M218.105,160.673c-3.376-1.01-6.592-1.518-9.627-1.518c-9.631,0-17.788,3.414-24.459,10.271   c-6.68,6.829-10.265,15.066-10.768,24.705l-7.605-22.307c0.671-6.926,3.545-12.875,8.621-17.867   c5.064-4.979,11.059-7.475,17.989-7.475c2.865,0,4.983,0.34,6.337,1.014c2.027,0.846,5.49,2.915,10.389,6.205   C213.878,156.995,216.919,159.329,218.105,160.673z M207.714,135.072c0,6.602,1.691,12.764,5.072,18.511l-7.605-4.823v-0.498   c-7.941-4.902-11.912-11.997-11.912-21.297c0-16.548,10.477-24.831,31.428-24.831c-0.676,0,0.415,0.247,3.293,0.758   C214.476,108.973,207.714,119.699,207.714,135.072z" fill="#FFFFFF"/>
	<path d="M145.954,191.951c2.566,12.01,1.632,23.945,1.301,35.957c-3.297,0.809-6.045,3.359-7.507,6.791   l-0.007,0.002c-1.484,0.201-2.576,0.885-3.364-0.631c-1.329-2.556-2.366-5.121-3.14-7.9c-0.168-0.598-1.853-0.141-1.688,0.453   c0.819,2.941,1.816,6.794,3.903,9.125c0.438,0.487,1.391,0.289,1.932,0.213c0.662-0.096,1.326-0.189,1.988-0.279   c-0.494,1.451-0.764,3.035-0.764,4.692c0,1.901,0.357,3.705,0.998,5.325c-2.874,1.455-7.297,3.33-8.798,1.807   c-1.948-1.978-2.62-4.973-4.426-7.094c-0.486-0.568-2.093,0.094-1.551,0.735c1.853,2.172,2.962,7.263,5.856,8.29   c1.331,0.474,2.182,0.256,3.47-0.272c1.938-0.796,3.965-1.549,5.904-2.433c0.826,1.676,1.969,3.109,3.336,4.192   c-0.279,0.675-0.433,1.413-0.433,2.185c0,1.938,0.97,3.669,2.479,4.783c-0.949,1.357-1.988,2.648-3.008,3.959   c-0.643,0.821,0.973,0.927,1.385,0.393c0.946-1.213,1.911-2.41,2.81-3.654c0.866,0.396,1.839,0.618,2.866,0.618   c0.812,0,1.59-0.141,2.309-0.392c0.697,1.225,1.471,2.41,1.922,3.762c0.206,0.612,1.885,0.132,1.689-0.454   c-0.488-1.464-1.357-2.735-2.096-4.071c1.641-1.107,2.707-2.909,2.707-4.943c0-0.771-0.154-1.509-0.433-2.188   c1.389-1.104,2.552-2.573,3.383-4.289c1.422,0.613,2.884,1.127,4.345,1.692c1.906,0.737,3.044,1.847,5.098,1.116   c3.129-1.109,4.176-6.136,6.127-8.426c0.69-0.811-0.928-1.04-1.409-0.473c-1.515,1.776-2.405,3.922-3.577,5.923   c-1.652,2.83-6.928,0.546-10.057-1.087c0.563-1.536,0.875-3.227,0.875-5.005c0-1.647-0.267-3.225-0.754-4.671l1.812,0.246   c0.858,0.116,1.529,0.148,2.3-0.279c1.008-0.558,1.58-2.468,2.037-3.418c0.914-1.906,1.562-3.929,2.127-5.959   c0.17-0.615-1.528-0.369-1.689,0.207c-0.756,2.711-1.705,5.316-3.081,7.777c-0.647,1.154-1.632,0.602-2.792,0.434   c-0.387-0.056-0.772-0.107-1.16-0.155c-1.473-3.35-4.175-5.837-7.412-6.64c0.309-12.146,1.112-24.196-1.296-36.338   c-0.32-1.615-0.661-3.906-1.01-6.704c-1.489-0.199-3.053-0.301-4.663-0.341C145.192,187.654,145.581,190.202,145.954,191.951z    M146.167,255.681c-0.551,0-1-0.449-1-1.002s0.449-0.999,1-0.999c0.553,0,1,0.446,1,0.999S146.72,255.681,146.167,255.681z    M152.197,253.68c0.553,0,1.004,0.446,1.004,0.999s-0.451,1.002-1.004,1.002c-0.55,0-0.996-0.449-0.996-1.002   S151.647,253.68,152.197,253.68z" fill="#FFFFFF"/>
	<path d="M147.407,163.994c-1.495-0.359-3.054-0.607-4.691-0.716c0.606,7.525,1.269,14.517,1.926,19.978   c1.6,0.03,3.155,0.148,4.667,0.356C148.675,178.309,148.019,171.441,147.407,163.994z" fill="#FFFFFF"/>
	<path d="M146.253,148.556c-1.157-0.189-2.375-0.295-3.67-0.295c-0.327,0-0.64,0.025-0.959,0.037   c0.301,4.591,0.634,9.22,0.987,13.685c1.619,0.08,3.178,0.294,4.682,0.63C146.924,158.042,146.573,153.285,146.253,148.556z" fill="#FFFFFF"/>
	<path d="M146.182,147.5c-0.344-5.166-0.647-10.271-0.893-15.03c-0.932-0.287-1.919-0.436-2.967-0.436   c-0.536,0-1.077,0.053-1.624,0.154c0.231,4.766,0.524,9.9,0.86,15.105c0.502-0.031,1.007-0.057,1.521-0.057   C144.145,147.238,145.173,147.339,146.182,147.5z" fill="#FFFFFF"/>
	<path d="M141.021,109.693c-0.479,0.081-0.812,0.184-0.818,0.303c-0.011,0.224-0.021,0.464-0.029,0.714   l1.146-0.713L141.021,109.693z" fill="#FFFFFF"/>
	<path d="M140.147,111.716c-0.019,0.969-0.023,2.08-0.015,3.315l1.688-4.537L140.147,111.716z" fill="#FFFFFF"/>
	<path d="M142.344,109.545c-0.201,0.014-0.4,0.031-0.594,0.051l0.07,0.139L142.344,109.545z" fill="#FFFFFF"/>
	<path d="M145.228,131.243c-0.145-2.896-0.266-5.649-0.359-8.192c-0.736-0.423-1.58-0.648-2.546-0.648   c-0.759,0-1.426,0.157-2.014,0.451c0.087,2.582,0.202,5.391,0.343,8.355c0.706-0.119,1.432-0.185,2.182-0.185   C143.671,131.024,144.467,131.101,145.228,131.243z" fill="#FFFFFF"/>
	<path d="M144.822,121.732c-0.084-2.497-0.139-4.764-0.16-6.733l-1.572-5.494c-0.015,0-0.029,0-0.044,0.001   l-0.974,0.737c-0.466,2.444-1.102,5.195-1.887,8.203c0.024,1.096,0.056,2.254,0.094,3.469c0.756-0.337,1.601-0.53,2.555-0.53   C143.411,121.385,144.08,121.511,144.822,121.732z" fill="#FFFFFF"/>
	<path d="M144.674,111.083c0.012-0.532,0.028-1.021,0.05-1.458c0.006-0.1-0.537-0.139-1.245-0.129   l0.626,1.249C144.283,110.851,144.476,110.966,144.674,111.083z" fill="#FFFFFF"/>
	<path d="M144.657,112.264c0.001-0.181,0.003-0.365,0.005-0.538l-0.301-0.214L144.657,112.264z" fill="#FFFFFF"/>
</g>
<g>
</g>
<g>
</g>
<g>
</g>
<g>
</g>
<g>
</g>
<g>
</g>
<g>
</g>
<g>
</g>
<g>
</g>
<g>
</g>
<g>
</g>
<g>
</g>
<g>
</g>
<g>
</g>
<g>
</g>
</svg>
