<svg xmlns="http://www.w3.org/2000/svg" xmlns:xlink="http://www.w3.org/1999/xlink" viewBox="0 0 548 464.1"><defs><style>.cls-1,.cls-8{fill:none;}.cls-2{clip-path:url(#clip-path);}.cls-3{fill:#6e8773;}.cls-4{fill:#303330;}.cls-5{fill:#c5ddd9;}.cls-6{fill:#d9db9a;}.cls-7{fill:#d88f8f;}.cls-8{stroke:#844f31;stroke-linecap:round;stroke-miterlimit:10;}.cls-9{fill:#a5a576;}.cls-10{fill:#bfbf88;}.cls-11{fill:#cccc92;}.cls-12{fill:#98a8a5;}.cls-13{fill:#aec1bd;}.cls-14{fill:#baceca;}.cls-15{fill:#a36d6d;}.cls-16{fill:#bc7e7e;}.cls-17{fill:#c98787;}.cls-18{opacity:0.2;}.cls-19{clip-path:url(#clip-path-2);}</style><clipPath id="clip-path" transform="translate(-0.45)"><rect class="cls-1" y="0.1" width="548" height="231.95"/></clipPath><clipPath id="clip-path-2" transform="translate(-0.45)"><rect class="cls-1" y="232.05" width="548" height="231.95"/></clipPath></defs><title>home_1</title><g id="Layer_2" data-name="Layer 2"><g id="Layer_1-2" data-name="Layer 1"><g id="Layer_4" data-name="Layer 4"><g class="cls-2"><path class="cls-3" d="M273.85,73.3h-47.7c-.5,0-.8-.7-.8-1.5V24.1c0-.8.4-1.5.8-1.5h47.7c.5,0,.8.7.8,1.5V71.8C274.65,72.6,274.25,73.3,273.85,73.3Z" transform="translate(-0.45)"/><rect class="cls-4" x="259.9" y="2" width="8.7" height="19.2"/><rect class="cls-4" x="258.4" width="11.7" height="8.3"/><polygon class="cls-4" points="283.1 26.3 249.7 0.1 216.4 26.3 283.1 26.3"/><rect class="cls-5" x="243.2" y="34" width="13.1" height="12.8"/><circle class="cls-6" cx="292" cy="257.5" r="200"/><circle class="cls-5" cx="100" cy="235.5" r="100"/><circle class="cls-7" cx="423" cy="235.5" r="125"/><circle class="cls-7" cx="126.8" cy="185.6" r="17.2"/><line class="cls-8" x1="122.8" y1="192.2" x2="126.8" y2="196.1"/><line class="cls-8" x1="130.7" y1="192.2" x2="126.8" y2="196.1"/><line class="cls-8" x1="126.8" y1="196.1" x2="126.8" y2="214.6"/><path class="cls-7" d="M171.85,54.7s-11.9,40-14.2,49.5h30.9Z" transform="translate(-0.45)"/><line class="cls-8" x1="167.9" y1="96.2" x2="171.9" y2="100.2"/><line class="cls-8" x1="175.8" y1="96.2" x2="171.9" y2="100.2"/><line class="cls-8" x1="171.9" y1="100.2" x2="171.9" y2="118.7"/><path class="cls-6" d="M381.05,147.2a17.2,17.2,0,1,1,17.2,17.2,17.2,17.2,0,0,1-17.2-17.2" transform="translate(-0.45)"/><line class="cls-8" x1="393.8" y1="153.8" x2="397.7" y2="157.7"/><line class="cls-8" x1="401.7" y1="153.8" x2="397.7" y2="157.7"/><line class="cls-8" x1="397.7" y1="157.7" x2="397.7" y2="176.2"/><path class="cls-5" d="M514.85,121.5s-11.9,40-14.2,49.5h30.9Z" transform="translate(-0.45)"/><line class="cls-8" x1="510.9" y1="163" x2="514.8" y2="167"/><line class="cls-8" x1="518.8" y1="163" x2="514.8" y2="167"/><line class="cls-8" x1="514.8" y1="167" x2="514.8" y2="185.5"/><path class="cls-5" d="M332.65,63a17.2,17.2,0,1,1,17.2,17.2A17.2,17.2,0,0,1,332.65,63" transform="translate(-0.45)"/><line class="cls-8" x1="345.4" y1="69.6" x2="349.4" y2="73.5"/><line class="cls-8" x1="353.3" y1="69.6" x2="349.4" y2="73.5"/><line class="cls-8" x1="349.4" y1="73.5" x2="349.4" y2="92"/><path class="cls-6" d="M41.25,121.5S29.35,161.5,27,171h30.9Z" transform="translate(-0.45)"/><line class="cls-8" x1="37.3" y1="163" x2="41.3" y2="167"/><line class="cls-8" x1="45.2" y1="163" x2="41.3" y2="167"/><line class="cls-8" x1="41.3" y1="167" x2="41.3" y2="185.5"/><path class="cls-9" d="M305.35,95.5h3.8a5.39,5.39,0,0,1,.8-2.1,6.93,6.93,0,0,1,2.4-4.6,23.3,23.3,0,0,0-3.2,1.9A9.06,9.06,0,0,0,305.35,95.5Z" transform="translate(-0.45)"/><path class="cls-9" d="M302.85,88.7c-.1,0-6,2.6-5.3,6.8h2.5a4.48,4.48,0,0,1,1.6-3.3A4.17,4.17,0,0,1,302.85,88.7Z" transform="translate(-0.45)"/><path class="cls-10" d="M301.65,92.1c-1.6,1.5-1.7,2.9-1.6,3.3h4.8c-2.8-1.7.6-5.5.6-5.5A12.64,12.64,0,0,0,301.65,92.1Z" transform="translate(-0.45)"/><path class="cls-10" d="M309.05,95.5h5.3s-1.7-4.6,4.5-6.9c0,0-6.6,1-9,4.9A4,4,0,0,0,309.05,95.5Z" transform="translate(-0.45)"/><path class="cls-11" d="M314.35,95.4h4.3c-.1-.7,0-2.6,4-4.4C322.65,91.1,317.45,91.4,314.35,95.4Z" transform="translate(-0.45)"/><path class="cls-9" d="M276.35,162.6h3.6a8.43,8.43,0,0,1,.7-2.4,10.05,10.05,0,0,1,2.2-5.5,20.69,20.69,0,0,0-3,2.2A11.78,11.78,0,0,0,276.35,162.6Z" transform="translate(-0.45)"/><path class="cls-9" d="M274.15,154.5c-.1,0-5.6,3.1-5,8.1h2.4a6.67,6.67,0,0,1,1.5-4A5.19,5.19,0,0,1,274.15,154.5Z" transform="translate(-0.45)"/><path class="cls-10" d="M272.95,158.6a6.31,6.31,0,0,0-1.5,4h4.5c-2.6-2,.5-6.6.6-6.6A9.57,9.57,0,0,0,272.95,158.6Z" transform="translate(-0.45)"/><path class="cls-10" d="M279.85,162.6h4.9a7,7,0,0,1,4.1-8.2s-6.1,1.2-8.4,5.8A12,12,0,0,0,279.85,162.6Z" transform="translate(-0.45)"/><path class="cls-11" d="M284.75,162.5h4c-.1-.8,0-3.1,3.7-5.2A11.16,11.16,0,0,0,284.75,162.5Z" transform="translate(-0.45)"/><path class="cls-9" d="M231.05,105.1h-4.5a5,5,0,0,0-.9-2.1,7.32,7.32,0,0,0-2.7-4.8,20.54,20.54,0,0,1,3.7,2C228.55,101.3,230.45,103,231.05,105.1Z" transform="translate(-0.45)"/><path class="cls-9" d="M233.95,98c.1,0,7,2.7,6.2,7.1h-3a4.53,4.53,0,0,0-1.9-3.5S235.95,100,233.95,98Z" transform="translate(-0.45)"/><path class="cls-10" d="M235.45,101.6a4.53,4.53,0,0,1,1.9,3.5h-5.6c3.3-1.8-.7-5.8-.7-5.8A14.75,14.75,0,0,1,235.45,101.6Z" transform="translate(-0.45)"/><path class="cls-10" d="M226.75,105.1h-6.2s2-4.9-5.2-7.2c0,0,7.7,1,10.5,5.1A5,5,0,0,1,226.75,105.1Z" transform="translate(-0.45)"/><path class="cls-11" d="M220.55,105h-5c.2-.7,0-2.7-4.6-4.6C210.95,100.5,216.95,100.8,220.55,105Z" transform="translate(-0.45)"/><path class="cls-9" d="M234.35,214.9h-3.3a8.23,8.23,0,0,0-.7-2.8,13.74,13.74,0,0,0-2-6.3,15,15,0,0,1,2.7,2.6A11.87,11.87,0,0,1,234.35,214.9Z" transform="translate(-0.45)"/><path class="cls-9" d="M236.45,205.6c.1.1,5.1,3.5,4.6,9.3h-2.2a8.74,8.74,0,0,0-1.4-4.6A6.92,6.92,0,0,0,236.45,205.6Z" transform="translate(-0.45)"/><path class="cls-10" d="M237.55,210.3a8.74,8.74,0,0,1,1.4,4.6h-4.1c2.4-2.3-.5-7.5-.5-7.6A10.38,10.38,0,0,1,237.55,210.3Z" transform="translate(-0.45)"/><path class="cls-10" d="M231.15,214.9h-4.5s1.4-6.3-3.8-9.4c0,0,5.7,1.3,7.7,6.7A9,9,0,0,1,231.15,214.9Z" transform="translate(-0.45)"/><path class="cls-11" d="M226.65,214.8h-3.7c.1-1,0-3.5-3.4-6A10.15,10.15,0,0,1,226.65,214.8Z" transform="translate(-0.45)"/><path class="cls-12" d="M166.35,222.8h2.1a8.36,8.36,0,0,1,.4-1.5,5.36,5.36,0,0,1,1.3-3.3,11.33,11.33,0,0,0-1.8,1.3A8.06,8.06,0,0,0,166.35,222.8Z" transform="translate(-0.45)"/><path class="cls-12" d="M164.95,217.9s-3.3,1.8-3,4.9h1.4a3.65,3.65,0,0,1,.9-2.4A4.67,4.67,0,0,1,164.95,217.9Z" transform="translate(-0.45)"/><path class="cls-13" d="M164.25,220.4a3.5,3.5,0,0,0-.9,2.4h2.7c-1.6-1.2.3-3.9.3-4A7.63,7.63,0,0,0,164.25,220.4Z" transform="translate(-0.45)"/><path class="cls-13" d="M168.45,222.8h3a4.24,4.24,0,0,1,2.5-4.9s-3.7.7-5,3.5A2.39,2.39,0,0,0,168.45,222.8Z" transform="translate(-0.45)"/><path class="cls-14" d="M171.35,222.8h2.4c-.1-.5,0-1.8,2.2-3.1A6.24,6.24,0,0,0,171.35,222.8Z" transform="translate(-0.45)"/><path class="cls-12" d="M87.65,164.7h-2.7a5,5,0,0,0-.5-1.3,4.2,4.2,0,0,0-1.6-2.9,10,10,0,0,1,2.2,1.2A7.48,7.48,0,0,1,87.65,164.7Z" transform="translate(-0.45)"/><path class="cls-12" d="M89.35,160.5c.1,0,4.2,1.6,3.7,4.3h-1.8a2.92,2.92,0,0,0-1.1-2.1C90.15,162.6,90.55,161.7,89.35,160.5Z" transform="translate(-0.45)"/><path class="cls-13" d="M90.25,162.6c1.1.9,1.2,1.8,1.1,2.1h-3.4c2-1.1-.4-3.5-.4-3.5A12.89,12.89,0,0,1,90.25,162.6Z" transform="translate(-0.45)"/><path class="cls-13" d="M85.05,164.7h-3.7s1.2-2.9-3.1-4.3c0,0,4.6.6,6.3,3.1A4.33,4.33,0,0,1,85.05,164.7Z" transform="translate(-0.45)"/><path class="cls-14" d="M81.35,164.7h-3c.1-.4,0-1.6-2.8-2.7A9.21,9.21,0,0,1,81.35,164.7Z" transform="translate(-0.45)"/><path class="cls-12" d="M34.85,210.2h-2a8.5,8.5,0,0,0-.4-1.7,7.27,7.27,0,0,0-1.2-3.8,12.23,12.23,0,0,1,1.6,1.5A8,8,0,0,1,34.85,210.2Z" transform="translate(-0.45)"/><path class="cls-12" d="M36.05,204.6s3.1,2.1,2.7,5.6h-1.3a4.67,4.67,0,0,0-.8-2.7A4.34,4.34,0,0,0,36.05,204.6Z" transform="translate(-0.45)"/><path class="cls-13" d="M36.75,207.4a4.85,4.85,0,0,1,.8,2.7H35c1.4-1.4-.3-4.5-.3-4.5A6,6,0,0,1,36.75,207.4Z" transform="translate(-0.45)"/><path class="cls-13" d="M32.95,210.2h-2.7s.9-3.8-2.3-5.7a7,7,0,0,1,4.6,4A7.11,7.11,0,0,1,32.95,210.2Z" transform="translate(-0.45)"/><path class="cls-14" d="M30.15,210.1h-2.2c.1-.6,0-2.1-2-3.6A6.07,6.07,0,0,1,30.15,210.1Z" transform="translate(-0.45)"/><path class="cls-15" d="M471.35,193.7h3.5a8.43,8.43,0,0,1,.7-2.4,10.05,10.05,0,0,1,2.2-5.5,20.69,20.69,0,0,0-3,2.2A12.11,12.11,0,0,0,471.35,193.7Z" transform="translate(-0.45)"/><path class="cls-15" d="M469.05,185.6c-.1,0-5.6,3.1-5,8.1h2.4a6.67,6.67,0,0,1,1.5-4A5.23,5.23,0,0,1,469.05,185.6Z" transform="translate(-0.45)"/><path class="cls-16" d="M467.85,189.7a6.31,6.31,0,0,0-1.5,4h4.5c-2.6-2,.5-6.6.6-6.6A10.79,10.79,0,0,0,467.85,189.7Z" transform="translate(-0.45)"/><path class="cls-16" d="M474.75,193.7h4.9a7,7,0,0,1,4.1-8.2s-6.1,1.2-8.4,5.8A14,14,0,0,0,474.75,193.7Z" transform="translate(-0.45)"/><path class="cls-17" d="M479.75,193.7h4c-.1-.8,0-3.1,3.7-5.2A10.12,10.12,0,0,0,479.75,193.7Z" transform="translate(-0.45)"/><path class="cls-15" d="M359.35,214.7h-4.5a5,5,0,0,0-.9-2.1,7.32,7.32,0,0,0-2.7-4.8,20.54,20.54,0,0,1,3.7,2A10.45,10.45,0,0,1,359.35,214.7Z" transform="translate(-0.45)"/><path class="cls-15" d="M362.15,207.6c.1,0,7,2.7,6.2,7.1h-3a4.53,4.53,0,0,0-1.9-3.5C363.55,211.2,364.15,209.6,362.15,207.6Z" transform="translate(-0.45)"/><path class="cls-16" d="M363.65,211.2a4.53,4.53,0,0,1,1.9,3.5h-5.6c3.3-1.8-.7-5.8-.7-5.8A14.76,14.76,0,0,1,363.65,211.2Z" transform="translate(-0.45)"/><path class="cls-16" d="M354.95,214.7h-6.2s2-4.9-5.2-7.2c0,0,7.7,1,10.5,5.1A4,4,0,0,1,354.95,214.7Z" transform="translate(-0.45)"/><path class="cls-17" d="M348.75,214.7h-5c.2-.7,0-2.7-4.6-4.6C339.15,210.2,345.25,210.4,348.75,214.7Z" transform="translate(-0.45)"/><path class="cls-15" d="M444.85,140.2h-3.3a8.23,8.23,0,0,0-.7-2.8,13.74,13.74,0,0,0-2-6.3,15,15,0,0,1,2.7,2.6A13.82,13.82,0,0,1,444.85,140.2Z" transform="translate(-0.45)"/><path class="cls-15" d="M446.95,130.9c.1.1,5.1,3.5,4.6,9.3h-2.2a8.74,8.74,0,0,0-1.4-4.6A6.92,6.92,0,0,0,446.95,130.9Z" transform="translate(-0.45)"/><path class="cls-16" d="M448.05,135.6a8.74,8.74,0,0,1,1.4,4.6h-4.1c2.4-2.3-.5-7.5-.5-7.6A11.67,11.67,0,0,1,448.05,135.6Z" transform="translate(-0.45)"/><path class="cls-16" d="M441.65,140.2h-4.5s1.4-6.3-3.8-9.4c0,0,5.7,1.3,7.7,6.7A9.83,9.83,0,0,1,441.65,140.2Z" transform="translate(-0.45)"/><path class="cls-17" d="M437.15,140.2h-3.7c.1-1,0-3.5-3.4-6C430.05,134.3,434.45,134.6,437.15,140.2Z" transform="translate(-0.45)"/></g></g><g id="Layer_4-2" data-name="Layer 4" class="cls-18"><g class="cls-19"><path class="cls-3" d="M274.65,392.3V440c0,.8-.3,1.5-.8,1.5h-47.7c-.4,0-.8-.7-.8-1.5V392.3c0-.8.3-1.5.8-1.5h47.7C274.25,390.8,274.65,391.5,274.65,392.3Z" transform="translate(-0.45)"/><rect class="cls-4" x="259.9" y="442.9" width="8.7" height="19.2"/><rect class="cls-4" x="258.4" y="455.8" width="11.7" height="8.3"/><polygon class="cls-4" points="216.4 437.8 249.7 464 283.1 437.8 216.4 437.8"/><rect class="cls-5" x="243.2" y="417.3" width="13.1" height="12.8"/><circle class="cls-6" cx="292" cy="206.6" r="200"/><circle class="cls-5" cx="100" cy="228.6" r="100"/><circle class="cls-7" cx="423" cy="228.6" r="125"/><circle class="cls-7" cx="126.8" cy="278.5" r="17.2"/><line class="cls-8" x1="126.8" y1="268" x2="122.8" y2="271.9"/><line class="cls-8" x1="126.8" y1="268" x2="130.7" y2="271.9"/><line class="cls-8" x1="126.8" y1="249.5" x2="126.8" y2="268"/><path class="cls-7" d="M188.55,359.9h-30.9c2.3,9.5,14.2,49.5,14.2,49.5Z" transform="translate(-0.45)"/><line class="cls-8" x1="171.9" y1="363.9" x2="167.9" y2="367.9"/><line class="cls-8" x1="171.9" y1="363.9" x2="175.8" y2="367.9"/><line class="cls-8" x1="171.9" y1="345.4" x2="171.9" y2="363.9"/><path class="cls-6" d="M381.05,316.9a17.2,17.2,0,1,1,17.2,17.2,17.2,17.2,0,0,1-17.2-17.2" transform="translate(-0.45)"/><line class="cls-8" x1="397.7" y1="306.4" x2="393.8" y2="310.3"/><line class="cls-8" x1="397.7" y1="306.4" x2="401.7" y2="310.3"/><line class="cls-8" x1="397.7" y1="287.9" x2="397.7" y2="306.4"/><path class="cls-5" d="M531.55,293.1h-30.9c2.3,9.5,14.2,49.5,14.2,49.5Z" transform="translate(-0.45)"/><line class="cls-8" x1="514.8" y1="297.1" x2="510.9" y2="301.1"/><line class="cls-8" x1="514.8" y1="297.1" x2="518.8" y2="301.1"/><line class="cls-8" x1="514.8" y1="278.6" x2="514.8" y2="297.1"/><path class="cls-5" d="M332.65,401.1a17.2,17.2,0,1,1,17.2,17.2,17.33,17.33,0,0,1-17.2-17.2" transform="translate(-0.45)"/><line class="cls-8" x1="349.4" y1="390.6" x2="345.4" y2="394.5"/><line class="cls-8" x1="349.4" y1="390.6" x2="353.3" y2="394.5"/><line class="cls-8" x1="349.4" y1="372.1" x2="349.4" y2="390.6"/><path class="cls-6" d="M57.95,293.1H27c2.3,9.5,14.2,49.5,14.2,49.5Z" transform="translate(-0.45)"/><line class="cls-8" x1="41.3" y1="297.1" x2="37.3" y2="301.1"/><line class="cls-8" x1="41.3" y1="297.1" x2="45.2" y2="301.1"/><line class="cls-8" x1="41.3" y1="278.6" x2="41.3" y2="297.1"/><path class="cls-9" d="M309.15,373.4a23.3,23.3,0,0,0,3.2,1.9,6.93,6.93,0,0,1-2.4-4.6,5.39,5.39,0,0,1-.8-2.1h-3.8A9.06,9.06,0,0,0,309.15,373.4Z" transform="translate(-0.45)"/><path class="cls-9" d="M301.65,371.9a4.48,4.48,0,0,1-1.6-3.3h-2.5c-.7,4.2,5.2,6.8,5.3,6.8A4.17,4.17,0,0,1,301.65,371.9Z" transform="translate(-0.45)"/><path class="cls-10" d="M305.45,374.2s-3.4-3.8-.6-5.5h-4.8c-.1.4,0,1.8,1.6,3.3A12.64,12.64,0,0,0,305.45,374.2Z" transform="translate(-0.45)"/><path class="cls-10" d="M309.85,370.6c2.4,3.9,9,4.9,9,4.9-6.2-2.3-4.5-6.9-4.5-6.9h-5.3A4,4,0,0,0,309.85,370.6Z" transform="translate(-0.45)"/><path class="cls-11" d="M322.65,373.1c-4-1.8-4.1-3.7-4-4.4h-4.3C317.45,372.7,322.65,373,322.65,373.1Z" transform="translate(-0.45)"/><path class="cls-9" d="M279.85,307.2a20.69,20.69,0,0,0,3,2.2,10.05,10.05,0,0,1-2.2-5.5,8.43,8.43,0,0,1-.7-2.4h-3.6A11.78,11.78,0,0,0,279.85,307.2Z" transform="translate(-0.45)"/><path class="cls-9" d="M273.05,305.5a6.67,6.67,0,0,1-1.5-4h-2.4c-.6,5,4.9,8.1,5,8.1A5.19,5.19,0,0,1,273.05,305.5Z" transform="translate(-0.45)"/><path class="cls-10" d="M276.55,308.1c-.1,0-3.2-4.6-.6-6.6h-4.5a6.31,6.31,0,0,0,1.5,4A9.57,9.57,0,0,0,276.55,308.1Z" transform="translate(-0.45)"/><path class="cls-10" d="M280.45,303.9c2.3,4.6,8.4,5.8,8.4,5.8a7,7,0,0,1-4.1-8.2h-4.9A12,12,0,0,0,280.45,303.9Z" transform="translate(-0.45)"/><path class="cls-11" d="M292.45,306.8c-3.7-2.1-3.8-4.4-3.7-5.2h-4A11.16,11.16,0,0,0,292.45,306.8Z" transform="translate(-0.45)"/><path class="cls-9" d="M226.65,363.9a20.54,20.54,0,0,1-3.7,2,7.32,7.32,0,0,0,2.7-4.8,5,5,0,0,0,.9-2.1h4.5C230.45,361.1,228.55,362.8,226.65,363.9Z" transform="translate(-0.45)"/><path class="cls-9" d="M235.25,362.5a4.53,4.53,0,0,0,1.9-3.5h3c.8,4.4-6.1,7.1-6.2,7.1C235.95,364.1,235.25,362.5,235.25,362.5Z" transform="translate(-0.45)"/><path class="cls-10" d="M231,364.8s4-4,.7-5.8h5.6a4.53,4.53,0,0,1-1.9,3.5A14.75,14.75,0,0,1,231,364.8Z" transform="translate(-0.45)"/><path class="cls-10" d="M225.85,361.1c-2.8,4.1-10.5,5.1-10.5,5.1,7.2-2.3,5.2-7.2,5.2-7.2h6.2A5,5,0,0,1,225.85,361.1Z" transform="translate(-0.45)"/><path class="cls-11" d="M210.95,363.7c4.6-1.9,4.8-3.9,4.6-4.6h5C216.95,363.3,210.95,363.6,210.95,363.7Z" transform="translate(-0.45)"/><path class="cls-9" d="M231.05,255.7a15,15,0,0,1-2.7,2.6,13.74,13.74,0,0,0,2-6.3,8.23,8.23,0,0,0,.7-2.8h3.3A11.87,11.87,0,0,1,231.05,255.7Z" transform="translate(-0.45)"/><path class="cls-9" d="M237.45,253.8a8.74,8.74,0,0,0,1.4-4.6h2.2c.5,5.8-4.5,9.2-4.6,9.3A6.92,6.92,0,0,0,237.45,253.8Z" transform="translate(-0.45)"/><path class="cls-10" d="M234.35,256.8c0-.1,2.9-5.3.5-7.6h4.1a8.74,8.74,0,0,1-1.4,4.6A10.38,10.38,0,0,1,234.35,256.8Z" transform="translate(-0.45)"/><path class="cls-10" d="M230.55,251.9c-2,5.4-7.7,6.7-7.7,6.7,5.2-3.1,3.8-9.4,3.8-9.4h4.5A9,9,0,0,1,230.55,251.9Z" transform="translate(-0.45)"/><path class="cls-11" d="M219.55,255.3c3.4-2.5,3.5-5,3.4-6h3.7A10.15,10.15,0,0,1,219.55,255.3Z" transform="translate(-0.45)"/><path class="cls-12" d="M168.35,244.8a11.33,11.33,0,0,0,1.8,1.3,5.36,5.36,0,0,1-1.3-3.3,8.36,8.36,0,0,1-.4-1.5h-2.1A8.06,8.06,0,0,0,168.35,244.8Z" transform="translate(-0.45)"/><path class="cls-12" d="M164.25,243.7a3.65,3.65,0,0,1-.9-2.4h-1.4c-.3,3.1,3,4.9,3,4.9A4.67,4.67,0,0,1,164.25,243.7Z" transform="translate(-0.45)"/><path class="cls-13" d="M166.35,245.3c0-.1-1.9-2.8-.3-4h-2.7a3.5,3.5,0,0,0,.9,2.4A7.63,7.63,0,0,0,166.35,245.3Z" transform="translate(-0.45)"/><path class="cls-13" d="M168.95,242.7c1.3,2.8,5,3.5,5,3.5a4.24,4.24,0,0,1-2.5-4.9h-3A2.39,2.39,0,0,0,168.95,242.7Z" transform="translate(-0.45)"/><path class="cls-14" d="M175.95,244.4c-2.2-1.3-2.3-2.6-2.2-3.1h-2.4A6.24,6.24,0,0,0,175.95,244.4Z" transform="translate(-0.45)"/><path class="cls-12" d="M85.05,302.4a10,10,0,0,1-2.2,1.2,4.2,4.2,0,0,0,1.6-2.9,5,5,0,0,0,.5-1.3h2.7A7.48,7.48,0,0,1,85.05,302.4Z" transform="translate(-0.45)"/><path class="cls-12" d="M90.15,301.4a2.92,2.92,0,0,0,1.1-2.1h1.8c.5,2.7-3.6,4.3-3.7,4.3C90.55,302.4,90.15,301.5,90.15,301.4Z" transform="translate(-0.45)"/><path class="cls-13" d="M87.55,302.9s2.4-2.4.4-3.5h3.4c.1.3,0,1.2-1.1,2.1A12.89,12.89,0,0,1,87.55,302.9Z" transform="translate(-0.45)"/><path class="cls-13" d="M84.55,300.6c-1.7,2.5-6.3,3.1-6.3,3.1,4.3-1.4,3.1-4.3,3.1-4.3h3.7A4.33,4.33,0,0,1,84.55,300.6Z" transform="translate(-0.45)"/><path class="cls-14" d="M75.55,302.1c2.8-1.1,2.9-2.3,2.8-2.7h3A9.21,9.21,0,0,1,75.55,302.1Z" transform="translate(-0.45)"/><path class="cls-12" d="M32.85,257.9a12.23,12.23,0,0,1-1.6,1.5,7.27,7.27,0,0,0,1.2-3.8,8.5,8.5,0,0,0,.4-1.7h2A8,8,0,0,1,32.85,257.9Z" transform="translate(-0.45)"/><path class="cls-12" d="M36.65,256.6a4.67,4.67,0,0,0,.8-2.7h1.3c.4,3.5-2.7,5.6-2.7,5.6A4.34,4.34,0,0,0,36.65,256.6Z" transform="translate(-0.45)"/><path class="cls-13" d="M34.75,258.5s1.7-3.1.3-4.5h2.5a4.85,4.85,0,0,1-.8,2.7A6,6,0,0,1,34.75,258.5Z" transform="translate(-0.45)"/><path class="cls-13" d="M32.55,255.6a7,7,0,0,1-4.6,4c3.2-1.9,2.3-5.7,2.3-5.7h2.7A7.11,7.11,0,0,1,32.55,255.6Z" transform="translate(-0.45)"/><path class="cls-14" d="M25.95,257.6c2-1.5,2.1-3,2-3.6h2.2A6.07,6.07,0,0,1,25.95,257.6Z" transform="translate(-0.45)"/><path class="cls-15" d="M474.75,276.1a20.69,20.69,0,0,0,3,2.2,10.05,10.05,0,0,1-2.2-5.5,8.43,8.43,0,0,1-.7-2.4h-3.5A12.11,12.11,0,0,0,474.75,276.1Z" transform="translate(-0.45)"/><path class="cls-15" d="M467.95,274.4a6.67,6.67,0,0,1-1.5-4h-2.4c-.6,5,4.9,8.1,5,8.1A5.23,5.23,0,0,1,467.95,274.4Z" transform="translate(-0.45)"/><path class="cls-16" d="M471.45,277c-.1,0-3.2-4.6-.6-6.6h-4.5a6.31,6.31,0,0,0,1.5,4A10.79,10.79,0,0,0,471.45,277Z" transform="translate(-0.45)"/><path class="cls-16" d="M475.35,272.8c2.3,4.6,8.4,5.8,8.4,5.8a7,7,0,0,1-4.1-8.2h-4.9A14,14,0,0,0,475.35,272.8Z" transform="translate(-0.45)"/><path class="cls-17" d="M487.45,275.6c-3.7-2.1-3.8-4.4-3.7-5.2h-4A10.12,10.12,0,0,0,487.45,275.6Z" transform="translate(-0.45)"/><path class="cls-15" d="M354.95,254.3a20.54,20.54,0,0,1-3.7,2,7.32,7.32,0,0,0,2.7-4.8,5,5,0,0,0,.9-2.1h4.5A10.45,10.45,0,0,1,354.95,254.3Z" transform="translate(-0.45)"/><path class="cls-15" d="M363.45,252.9a4.53,4.53,0,0,0,1.9-3.5h3c.8,4.4-6.1,7.1-6.2,7.1C364.15,254.5,363.55,252.9,363.45,252.9Z" transform="translate(-0.45)"/><path class="cls-16" d="M359.25,255.2s4-4,.7-5.8h5.6a4.53,4.53,0,0,1-1.9,3.5A14.76,14.76,0,0,1,359.25,255.2Z" transform="translate(-0.45)"/><path class="cls-16" d="M354,251.5c-2.8,4.1-10.5,5.1-10.5,5.1,7.2-2.3,5.2-7.2,5.2-7.2h6.2A4,4,0,0,1,354,251.5Z" transform="translate(-0.45)"/><path class="cls-17" d="M339.15,254c4.6-1.9,4.8-3.9,4.6-4.6h5C345.25,253.7,339.15,253.9,339.15,254Z" transform="translate(-0.45)"/><path class="cls-15" d="M441.55,330.4a15,15,0,0,1-2.7,2.6,13.74,13.74,0,0,0,2-6.3,8.23,8.23,0,0,0,.7-2.8h3.3A13.82,13.82,0,0,1,441.55,330.4Z" transform="translate(-0.45)"/><path class="cls-15" d="M447.95,328.5a8.74,8.74,0,0,0,1.4-4.6h2.2c.5,5.8-4.5,9.2-4.6,9.3A6.92,6.92,0,0,0,447.95,328.5Z" transform="translate(-0.45)"/><path class="cls-16" d="M444.85,331.5c0-.1,2.9-5.3.5-7.6h4.1a8.74,8.74,0,0,1-1.4,4.6A11.67,11.67,0,0,1,444.85,331.5Z" transform="translate(-0.45)"/><path class="cls-16" d="M441.05,326.6c-2,5.4-7.7,6.7-7.7,6.7,5.2-3.1,3.8-9.4,3.8-9.4h4.5A9.83,9.83,0,0,1,441.05,326.6Z" transform="translate(-0.45)"/><path class="cls-17" d="M430.05,329.9c3.4-2.5,3.5-5,3.4-6h3.7C434.45,329.5,430.05,329.8,430.05,329.9Z" transform="translate(-0.45)"/></g></g></g></g></svg>