<svg xmlns="http://www.w3.org/2000/svg" xmlns:xlink="http://www.w3.org/1999/xlink" viewBox="0 0 360 720"><defs><style>.cls-1,.cls-76{fill:none;}.cls-2{fill:#f9f9f9;}.cls-3,.cls-45,.cls-9{fill:#fff;}.cls-4,.cls-9{font-size:12px;}.cls-14,.cls-35,.cls-38,.cls-4,.cls-41{fill:#707070;}.cls-4,.cls-53,.cls-9{font-family:BrandonGrotesque-Medium, Brandon Grotesque;}.cls-5{letter-spacing:-0.01em;}.cls-6,.cls-7{fill:#5f6060;}.cls-7{fill-opacity:0.3;}.cls-8{fill:#8f1d21;}.cls-10{letter-spacing:-0.01em;}.cls-11{letter-spacing:-0.02em;}.cls-12{letter-spacing:0em;}.cls-13{letter-spacing:0.01em;}.cls-14{font-size:11px;}.cls-14,.cls-22,.cls-39,.cls-41,.cls-69,.cls-75{font-family:Calibri, Calibri;}.cls-15{letter-spacing:-0.03em;}.cls-16{letter-spacing:-0.01em;}.cls-17{letter-spacing:-0.01em;}.cls-18{clip-path:url(#clip-path);}.cls-19{fill:#ddd;}.cls-20,.cls-53,.cls-56,.cls-67{font-size:10px;}.cls-20,.cls-43,.cls-49,.cls-53{fill:#2f3338;}.cls-20,.cls-40,.cls-45,.cls-67,.cls-77{font-family:Calibri-Bold, Calibri;}.cls-20,.cls-40,.cls-45,.cls-49,.cls-56,.cls-63,.cls-67,.cls-77{font-weight:700;}.cls-21{letter-spacing:-0.01em;}.cls-22,.cls-35,.cls-73{font-size:9px;}.cls-22{fill:#1d2129;}.cls-23{letter-spacing:0em;}.cls-24{letter-spacing:-0.01em;}.cls-25{letter-spacing:-0.01em;}.cls-26{letter-spacing:-0.06em;}.cls-27{letter-spacing:-0.01em;}.cls-28{letter-spacing:-0.03em;}.cls-29{letter-spacing:0.03em;}.cls-30{letter-spacing:-0.02em;}.cls-31{letter-spacing:-0.02em;}.cls-32{letter-spacing:0em;}.cls-33{letter-spacing:-0.01em;}.cls-34,.cls-39,.cls-40,.cls-63{fill:#ea767a;}.cls-35,.cls-37,.cls-73{opacity:0.6;}.cls-35,.cls-73{font-family:Consolas, Consolas;}.cls-36{clip-path:url(#clip-path-2);}.cls-39,.cls-40,.cls-41,.cls-75,.cls-77{font-size:8px;}.cls-42{letter-spacing:-0.02em;}.cls-43{opacity:0.4;}.cls-44{fill:#cf000f;}.cls-45{font-size:5px;}.cls-46{letter-spacing:-0.02em;}.cls-47{letter-spacing:-0.03em;}.cls-48{clip-path:url(#clip-path-3);}.cls-49,.cls-63,.cls-69{font-size:13px;}.cls-49,.cls-56,.cls-63{font-family:BrandonGrotesque-Bold, Brandon Grotesque;}.cls-50{letter-spacing:-0.08em;}.cls-51{letter-spacing:0em;}.cls-52{letter-spacing:-0.01em;}.cls-54{letter-spacing:-0.01em;}.cls-55{letter-spacing:-0.04em;}.cls-57{fill:#eded0f;}.cls-58{fill:#f78406;}.cls-59{fill:#e50000;}.cls-60{fill:#1b6644;}.cls-61{fill:#207a51;}.cls-62{fill:#22895d;}.cls-64{letter-spacing:-0.01em;}.cls-65{fill:#77a6e8;opacity:0.2;}.cls-66{fill:url(#linear-gradient);}.cls-67,.cls-69,.cls-73,.cls-74,.cls-75,.cls-77{fill:#efefef;}.cls-68{clip-path:url(#clip-path-4);}.cls-70{letter-spacing:0em;}.cls-71{letter-spacing:-0.01em;}.cls-72{letter-spacing:-0.01em;}.cls-76{stroke:#efefef;stroke-miterlimit:10;stroke-width:0.5px;}</style><clipPath id="clip-path"><circle class="cls-1" cx="135" cy="104" r="20"/></clipPath><clipPath id="clip-path-2"><circle class="cls-1" cx="53" cy="176" r="20"/></clipPath><clipPath id="clip-path-3"><circle class="cls-1" cx="53" cy="571" r="20"/></clipPath><linearGradient id="linear-gradient" x1="180" y1="290" x2="180" y2="522" gradientUnits="userSpaceOnUse"><stop offset="0" stop-color="#fff" stop-opacity="0"/><stop offset="0.76" stop-color="#50504e" stop-opacity="0"/><stop offset="1"/></linearGradient><clipPath id="clip-path-4"><circle class="cls-1" cx="53" cy="326" r="20"/></clipPath></defs><title>design_2_1</title><g id="Layer_2" data-name="Layer 2"><g id="Layer_1-2" data-name="Layer 1"><rect class="cls-2" width="360" height="720" rx="28" ry="28"/><path class="cls-3" d="M28,0H332a28,28,0,0,1,28,28v6a0,0,0,0,1,0,0H0a0,0,0,0,1,0,0V28A28,28,0,0,1,28,0Z"/><text class="cls-4" transform="translate(19 19.82)">21:<tspan class="cls-5" x="13.3" y="0">0</tspan><tspan x="20.81" y="0">2</tspan></text><path class="cls-6" d="M330.34,10.12h-.89V9.05h-2.13v1.07h-.89a.71.71,0,0,0-.71.71V19a.71.71,0,0,0,.71.71h3.91a.71.71,0,0,0,.71-.71V10.83A.71.71,0,0,0,330.34,10.12Z"/><path class="cls-7" d="M303.67,19.34h10.67V8.67Z"/><path class="cls-6" d="M311.67,11.33l-8,8h8Z"/><path class="cls-6" d="M290.83,19.06l5.33-6.64a8.68,8.68,0,0,0-10.67,0l5.33,6.64h0Z"/><rect class="cls-8" y="34" width="360" height="34"/><text class="cls-9" transform="translate(112.96 53.82)"><tspan class="cls-10">C</tspan><tspan x="8.18" y="0">oldplay - </tspan><tspan class="cls-11" x="51.62" y="0">S</tspan><tspan x="57.88" y="0">tr</tspan><tspan class="cls-12" x="66.06" y="0">a</tspan><tspan x="71.1" y="0">wber</tspan><tspan class="cls-13" x="93.78" y="0">r</tspan><tspan x="97.97" y="0">y </tspan><tspan class="cls-11" x="106.16" y="0">S</tspan><tspan x="112.41" y="0">wing</tspan></text><g id="pause"><path class="cls-3" d="M319.05,58h4V44h-4Zm8-14V58h4V44Z"/></g><text class="cls-14" transform="translate(165 106.77)"><tspan class="cls-15">W</tspan><tspan x="9.46" y="0">ri</tspan><tspan class="cls-16" x="15.82" y="0">t</tspan><tspan x="19.39" y="0">e som</tspan><tspan class="cls-17" x="46.24" y="0">e</tspan><tspan x="51.65" y="0">thing...</tspan></text><g class="cls-18"><image width="3280" height="4928" transform="translate(110.2 68.87) scale(0.01)" xlink:href="../../../../../Downloads/adorable-casual-cute-1752134.jpg"/></g><path class="cls-3" d="M0,686H360a0,0,0,0,1,0,0v6a28,28,0,0,1-28,28H28A28,28,0,0,1,0,692v-6A0,0,0,0,1,0,686Z"/><rect class="cls-19" x="164" y="699" width="32" height="8" rx="4" ry="4"/><g id="keyboard-arrow-left"><polygon class="cls-19" points="94.93 709.13 88.8 703 94.93 696.87 93.07 695 85.07 703 93.07 711 94.93 709.13"/></g><g id="keyboard-arrow-left-2" data-name="keyboard-arrow-left"><polygon class="cls-19" points="265.07 709.13 271.2 703 265.07 696.87 266.93 695 274.93 703 266.93 711 265.07 709.13"/></g><rect class="cls-3" y="140" width="360" height="138"/><text class="cls-20" transform="translate(81 169.16)">Alicia Moo<tspan class="cls-21" x="44.3" y="0">r</tspan><tspan x="47.74" y="0">e</tspan></text><text class="cls-22" transform="translate(33 219.34)">God I l<tspan class="cls-23" x="23.55" y="0">o</tspan><tspan class="cls-24" x="28.26" y="0">v</tspan><tspan x="32.24" y="0">e these albums. The</tspan><tspan class="cls-25" x="105.45" y="0">r</tspan><tspan x="108.47" y="0">e</tspan><tspan class="cls-26" x="112.94" y="0">’</tspan><tspan x="114.64" y="0">s not a single song th</tspan><tspan class="cls-27" x="191.2" y="0">a</tspan><tspan x="195.43" y="0">t I </tspan><tspan class="cls-27" x="204.78" y="0">w</tspan><tspan x="211.13" y="0">ould disli</tspan><tspan class="cls-28" x="243.88" y="0">k</tspan><tspan x="247.68" y="0">e. I</tspan><tspan class="cls-29" x="258.73" y="0">t</tspan><tspan class="cls-26" x="262.06" y="0">’</tspan><tspan x="263.76" y="0">s </tspan><tspan x="0" y="10.8">also some of the mo</tspan><tspan class="cls-21" x="74.36" y="10.8">s</tspan><tspan x="77.78" y="10.8">t per</tspan><tspan class="cls-30" x="95.18" y="10.8">f</tspan><tspan x="97.7" y="10.8">ectly p</tspan><tspan class="cls-31" x="121.9" y="10.8">r</tspan><tspan x="124.89" y="10.8">oduced music I</tspan><tspan class="cls-25" x="179.75" y="10.8">’</tspan><tspan class="cls-24" x="181.88" y="10.8">v</tspan><tspan x="185.86" y="10.8">e </tspan><tspan class="cls-32" x="192.37" y="10.8">e</tspan><tspan class="cls-24" x="196.8" y="10.8">v</tspan><tspan x="200.78" y="10.8">er hea</tspan><tspan class="cls-33" x="223.95" y="10.8">r</tspan><tspan x="226.96" y="10.8">d.</tspan></text><circle class="cls-34" cx="143.28" cy="166.5" r="1.5"/><text class="cls-35" transform="translate(98.05 185.82)">w+</text><g class="cls-36"><image width="1600" height="1067" transform="translate(8.96 149.32) scale(0.06)" xlink:href="design_2_11.png"/></g><g class="cls-37"><circle class="cls-38" cx="326.5" cy="162" r="1.5"/><circle class="cls-38" cx="326.5" cy="166.5" r="1.5"/><circle class="cls-38" cx="326.5" cy="157.5" r="1.5"/></g><g class="cls-37"><path class="cls-1" d="M87,179.2a4.8,4.8,0,1,0,4.8,4.8A4.81,4.81,0,0,0,87,179.2Zm2.52,7.32L86.4,184.6V181h.9v3.12l2.7,1.62Z"/><path class="cls-38" d="M87,178a6,6,0,1,0,6,6A6,6,0,0,0,87,178Zm0,10.8a4.8,4.8,0,1,1,4.8-4.8A4.81,4.81,0,0,1,87,188.8Z"/><polygon class="cls-38" points="87.3 181 86.4 181 86.4 184.6 89.52 186.52 90 185.74 87.3 184.12 87.3 181"/></g><path class="cls-34" d="M33.32,260.31H35a.32.32,0,0,0,.32-.32v-5.72a.32.32,0,0,0-.32-.32H33.32a.32.32,0,0,0-.32.32V260A.32.32,0,0,0,33.32,260.31Z"/><path class="cls-34" d="M44.49,253.43a1.23,1.23,0,0,0-.73-.24H40.6a.24.24,0,0,1-.24-.24v-2.37a1.63,1.63,0,0,0-.52-1.39A1.65,1.65,0,0,0,38.6,249v2.1a2.84,2.84,0,0,1-1.31,2.36,4.55,4.55,0,0,1-1.28.63l-.22.07v5.09A1.26,1.26,0,0,0,37,260.51h5.61a1.43,1.43,0,0,0,1.61-1.29h0l.71-4.55A1.28,1.28,0,0,0,44.49,253.43Z"/><text class="cls-39" transform="translate(54.01 258)">46</text><path class="cls-34" d="M292.27,253.75c-1.06-2.46-2.75-4.33-3.61-4-1.46.59.87,3.44-6.3,6.36-.62.25-.78,1.26-.52,1.86s1.11,1.2,1.72.95l.5-.17c.44.59.9.24,1.07.62l.77,1.77c.15.33.48.64.72.55l1.37-.52a.45.45,0,0,0,.29-.62c-.1-.24-.52-.31-.64-.58s-.51-1.16-.63-1.44.17-.69.65-.74c3.26-.34,3.87,1.67,5,1.22C293.5,258.7,293.33,256.21,292.27,253.75Zm-.37,4c-.19.08-1.47-.94-2.3-2.84s-.72-3.65-.53-3.73,1.44,1.14,2.26,3.05S292.09,257.66,291.9,257.74Z"/><path class="cls-38" d="M101.14,250.13c3,0,5.5,2.19,5.5,4.88s-2.47,4.88-5.5,4.88a5.81,5.81,0,0,1-2.34-.46l-.24-.1-.22.13a8.33,8.33,0,0,1-2.18.84,8.07,8.07,0,0,0,.47-2.29v-.19l-.11-.15a4.42,4.42,0,0,1-.89-2.65c0-2.69,2.47-4.88,5.5-4.88m0-.5c-3.31,0-6,2.4-6,5.38a4.9,4.9,0,0,0,1,3,5.25,5.25,0,0,1-1,3,10.82,10.82,0,0,0,3.46-1.13,6.33,6.33,0,0,0,2.54.5c3.31,0,6-2.4,6-5.38s-2.69-5.38-6-5.38Z"/><text class="cls-40" transform="translate(301.19 257.6)">Phoenix</text><text class="cls-41" transform="translate(115.14 257.75)"><tspan class="cls-42">R</tspan><tspan x="4.2" y="0">eply</tspan></text><text class="cls-41" transform="translate(230.21 257.75)">8 <tspan class="cls-25" x="5.86" y="0">r</tspan><tspan x="8.55" y="0">eplies</tspan></text><rect class="cls-43" x="155" y="163" width="28" height="28"/><image width="220" height="220" transform="translate(152.78 161) scale(0.13)" xlink:href="../../../../220px-Phoenix_-_Wolfgang_Amadeus_Phoenix.png"/><circle class="cls-44" cx="181" cy="189" r="4"/><text class="cls-45" transform="translate(179.73 190.62)">4</text><rect class="cls-3" y="535" width="360" height="148"/><text class="cls-20" transform="translate(81 564.16)">Sean <tspan class="cls-46" x="22.32" y="0">P</tspan><tspan x="27.45" y="0">ar</tspan><tspan class="cls-47" x="35.94" y="0">k</tspan><tspan x="40.47" y="0">er</tspan></text><circle class="cls-34" cx="139.56" cy="561.5" r="1.5"/><text class="cls-35" transform="translate(98.05 580.82)">s+</text><g class="cls-37"><circle class="cls-38" cx="326.5" cy="557" r="1.5"/><circle class="cls-38" cx="326.5" cy="561.5" r="1.5"/><circle class="cls-38" cx="326.5" cy="552.5" r="1.5"/></g><g class="cls-37"><path class="cls-1" d="M87,574.2a4.8,4.8,0,1,0,4.8,4.8A4.81,4.81,0,0,0,87,574.2Zm2.52,7.32L86.4,579.6V576h.9v3.12l2.7,1.62Z"/><path class="cls-38" d="M87,573a6,6,0,1,0,6,6A6,6,0,0,0,87,573Zm0,10.8a4.8,4.8,0,1,1,4.8-4.8A4.81,4.81,0,0,1,87,583.8Z"/><polygon class="cls-38" points="87.3 576 86.4 576 86.4 579.6 89.52 581.52 90 580.74 87.3 579.12 87.3 576"/></g><g class="cls-48"><image width="6720" height="4480" transform="translate(5.67 549.43) scale(0.01)" xlink:href="../../../../../Downloads/corey-agopian-218230-unsplash.jpg"/></g><text class="cls-41" transform="translate(149.06 563.51)"><tspan class="cls-42">R</tspan><tspan x="4.2" y="0">ece</tspan><tspan class="cls-27" x="15.55" y="0">n</tspan><tspan x="19.68" y="0">tly Li</tspan><tspan class="cls-28" x="34.82" y="0">k</tspan><tspan x="38.2" y="0">ed</tspan></text><image width="500" height="500" transform="translate(33 607) scale(0.12)" xlink:href="../../../../Toro-y-Moi-Outer-Peace-500x500.jpg"/><text class="cls-49" transform="translate(107.21 617.61)"><tspan class="cls-50">T</tspan><tspan x="5.52" y="0">o</tspan><tspan class="cls-51" x="11.61" y="0">r</tspan><tspan x="16" y="0">o Y </tspan><tspan class="cls-52" x="35.41" y="0">M</tspan><tspan x="46.59" y="0">oi</tspan></text><text class="cls-53" transform="translate(107.21 636.79)"><tspan class="cls-54">O</tspan><tspan x="7.98" y="0">uter </tspan><tspan class="cls-55" x="26.44" y="0">P</tspan><tspan x="32.02" y="0">eace</tspan></text><text class="cls-56" transform="translate(107.21 664.83)">7.3</text><path class="cls-57" d="M138.23,662.9c1.61,1.48,1.33,3.57-1.76,4.34-4.12,1-8.6-1-8.6-3.5,0-1.69,2.31-2.7,4.76-2.7A8.87,8.87,0,0,1,138.23,662.9Z"/><path class="cls-58" d="M137,663c1,1,.5,2.29-1.54,2.66-2.43.43-5.08-.66-5.4-2.1-.25-1.12,1.16-1.9,2.9-1.94A5.84,5.84,0,0,1,137,663Z"/><path class="cls-59" d="M135.47,663.12c.37.48,0,1-.87,1.09a2.34,2.34,0,0,1-2.26-.84c-.22-.5.32-.9,1.15-.94A2.55,2.55,0,0,1,135.47,663.12Z"/><path class="cls-60" d="M139.17,656.84c.07-.07.07-.12-.05-.12h-1c-.1,0-.11,0-.16.06l-.93.93h1.19a.2.2,0,0,0,.18-.07Z"/><path class="cls-61" d="M137.88,655.55c.07-.07.12-.07.12.05v1c0,.1,0,.11-.06.16l-.93.93v-1.19a.21.21,0,0,1,.06-.18Z"/><path class="cls-62" d="M134.29,658.84a1.12,1.12,0,0,0,1.58,1.58l1.4-1.4a1.12,1.12,0,0,0-1.58-1.58Z"/><text class="cls-63" transform="translate(202.21 665.53)"><tspan class="cls-64">P</tspan><tspan x="7.54" y="0">lay</tspan></text><rect class="cls-65" y="683" width="360" height="3"/><image width="1078" height="719" transform="translate(0 290) scale(0.33 0.32)" xlink:href="../../../../maxresdefault.jpg"/><rect class="cls-66" y="290" width="360" height="232"/><text class="cls-67" transform="translate(81 319.16)">Alicia Moo<tspan class="cls-21" x="44.3" y="0">r</tspan><tspan x="47.74" y="0">e</tspan></text><g class="cls-68"><image width="5472" height="3648" transform="translate(17.89 305.76) scale(0.01 0.01)" xlink:href="../../../../../Downloads/elizeu-dias-613494-unsplash.jpg"/></g><text class="cls-69" transform="translate(33 374.34)">I <tspan class="cls-21" x="6.21" y="0">w</tspan><tspan x="15.36" y="0">as in this c</tspan><tspan class="cls-31" x="70.05" y="0">r</tspan><tspan class="cls-70" x="74.38" y="0">o</tspan><tspan class="cls-71" x="81.18" y="0">w</tspan><tspan x="90.36" y="0">d, </tspan><tspan x="0" y="15.6">wh</tspan><tspan class="cls-27" x="16.12" y="15.6">a</tspan><tspan x="22.23" y="15.6">t a </tspan><tspan class="cls-46" x="38.69" y="15.6">f</tspan><tspan x="42.4" y="15.6">a</tspan><tspan class="cls-27" x="48.63" y="15.6">n</tspan><tspan class="cls-72" x="55.34" y="15.6">t</tspan><tspan x="59.53" y="15.6">a</tspan><tspan class="cls-21" x="65.76" y="15.6">s</tspan><tspan x="70.7" y="15.6">tic nig</tspan><tspan class="cls-27" x="102.31" y="15.6">h</tspan><tspan x="109.02" y="15.6">t!</tspan></text><circle class="cls-34" cx="143.28" cy="316.5" r="1.5"/><text class="cls-73" transform="translate(98.05 335.82)">w+</text><g class="cls-37"><circle class="cls-74" cx="326.5" cy="312" r="1.5"/><circle class="cls-74" cx="326.5" cy="316.5" r="1.5"/><circle class="cls-74" cx="326.5" cy="307.5" r="1.5"/></g><g class="cls-37"><path class="cls-1" d="M87,329.2a4.8,4.8,0,1,0,4.8,4.8A4.81,4.81,0,0,0,87,329.2Zm2.52,7.32L86.4,334.6V331h.9v3.12l2.7,1.62Z"/><path class="cls-74" d="M87,328a6,6,0,1,0,6,6A6,6,0,0,0,87,328Zm0,10.8a4.8,4.8,0,1,1,4.8-4.8A4.81,4.81,0,0,1,87,338.8Z"/><polygon class="cls-74" points="87.3 331 86.4 331 86.4 334.6 89.52 336.52 90 335.74 87.3 334.12 87.3 331"/></g><path class="cls-74" d="M33.32,508.57H35a.32.32,0,0,0,.32-.32v-5.72a.32.32,0,0,0-.32-.32H33.32a.32.32,0,0,0-.32.32v5.72A.32.32,0,0,0,33.32,508.57Z"/><path class="cls-74" d="M44.49,501.69a1.23,1.23,0,0,0-.73-.24H40.6a.24.24,0,0,1-.24-.24v-2.37a1.63,1.63,0,0,0-.52-1.39,1.65,1.65,0,0,0-1.24-.19v2.1a2.84,2.84,0,0,1-1.31,2.36,4.55,4.55,0,0,1-1.28.63l-.22.07v5.09A1.26,1.26,0,0,0,37,508.78h5.61a1.43,1.43,0,0,0,1.61-1.29h0l.71-4.55A1.28,1.28,0,0,0,44.49,501.69Z"/><text class="cls-75" transform="translate(54.01 506.27)">29</text><path class="cls-74" d="M292.27,502c-1.06-2.46-2.75-4.33-3.61-4-1.46.59.87,3.44-6.3,6.36-.62.25-.78,1.26-.52,1.86s1.11,1.2,1.72.95l.5-.17c.44.59.9.24,1.07.62l.77,1.77c.15.33.48.64.72.55l1.37-.52a.45.45,0,0,0,.29-.62c-.1-.24-.52-.31-.64-.58s-.51-1.16-.63-1.44.17-.69.65-.74c3.26-.34,3.87,1.67,5,1.22C293.5,507,293.33,504.48,292.27,502Zm-.37,4c-.19.08-1.47-.94-2.3-2.84s-.72-3.65-.53-3.73,1.44,1.14,2.26,3.05S292.09,505.93,291.9,506Z"/><path class="cls-76" d="M101.14,497.89c-3.31,0-6,2.4-6,5.38a4.9,4.9,0,0,0,1,3,5.25,5.25,0,0,1-1,3,10.82,10.82,0,0,0,3.46-1.13,6.33,6.33,0,0,0,2.54.5c3.31,0,6-2.4,6-5.38S104.45,497.89,101.14,497.89Z"/><text class="cls-77" transform="translate(301.19 505.87)">Blur</text><text class="cls-75" transform="translate(115.14 506.01)"><tspan class="cls-42">R</tspan><tspan x="4.2" y="0">eply</tspan></text><text class="cls-75" transform="translate(226.15 506.01)">21 <tspan class="cls-25" x="9.92" y="0">r</tspan><tspan x="12.6" y="0">eplies</tspan></text></g></g></svg>