<svg xmlns="http://www.w3.org/2000/svg" viewBox="0 0 250 250"><defs><style>.cls-1{fill:#ea767a;}.cls-2{fill:#fff;}.cls-3{fill:#eaea36;}.cls-10,.cls-4,.cls-5,.cls-6,.cls-8,.cls-9{fill:none;stroke-linecap:round;stroke-linejoin:round;opacity:0.9;isolation:isolate;}.cls-4,.cls-5,.cls-6{stroke:#eaea36;}.cls-4,.cls-8{stroke-width:2px;}.cls-5,.cls-9{stroke-width:1.75px;}.cls-10,.cls-6{stroke-width:1.25px;}.cls-7{fill:#ef4034;}.cls-10,.cls-8,.cls-9{stroke:#ef4034;}</style></defs><title>ic_logo_round</title><g id="Layer_2" data-name="Layer 2"><g id="Layer_1-2" data-name="Layer 1"><circle class="cls-1" cx="125" cy="125" r="125"/><path class="cls-2" d="M161.72,92.32l-4.8,9.1,41,23.5a4.92,4.92,0,0,0,6-.6,3.81,3.81,0,0,0,.9-1.3,6,6,0,0,0-2.7-7.5Z"/><path class="cls-3" d="M103.72,105a46,46,0,0,1-4.5-4.6C96.42,97,95,95,95,95l8.5.3-1.6-7.8.8-.8,8.6-.1-1.9-7.5a.78.78,0,0,0,.3-.4l8.9-.7-3.4-6.9h0l9-2.5-3.3-6.8,8.9-2.5-4.5-6.3,9.6-3.3-6.2-5.3,6.5-1.2-6-2.9a48.55,48.55,0,0,1,14.1,4.6c-1.6,9.8-6.3,21.7-13.6,33-7.9,12.1-17.4,21.7-26,27.1"/><path class="cls-2" d="M111.92,102.92a53.37,53.37,0,0,1-5.6,4.1c.7.5,1.5,1.1,2.3,1.6,1.4.9,2.9,1.7,4.3,2.5a22.76,22.76,0,0,0-.8-8.3A.35.35,0,0,0,111.92,102.92Z"/><path class="cls-2" d="M92.72,91.82c7.3-5.7,14.4-13.8,20.6-23.2,6.2-9.7,10.6-19.7,12.7-28.6-13.4-1.1-26.1,4.1-33.1,14.9-7.2,10.9-6.8,24.8-.2,36.9"/><path class="cls-2" d="M157.12,69.52c.2-.1.3-.4.5-.5a5,5,0,1,1-.7,7,5,5,0,0,1-.4-5.7c-1.4-1.6-7.8-9.4-13.4-12.6a117.24,117.24,0,0,1-5.6,12.9c6.9,4.3,13.4,14.6,13.8,15a5,5,0,0,1,6.6,1,5.65,5.65,0,0,1,1.1,2.5,145,145,0,0,1,9.7-11.6c-2-11.2-9-22.3-20.3-29.8-.7-.4-1.4-.9-2.1-1.4a92.72,92.72,0,0,1-2.7,10.3C149.12,59.92,155.42,67.42,157.12,69.52Z"/><path class="cls-2" d="M112.12,118.92A15,15,0,0,0,114,112a38.23,38.23,0,0,0,9.1,3.3,5.12,5.12,0,0,0,1.1,3.9,4.87,4.87,0,0,0,7,.7,5.64,5.64,0,0,0,1.9-3.2,36,36,0,0,0,11.4-1.4A98.92,98.92,0,0,1,155,94.92a5.83,5.83,0,0,1-5.1-2,4.93,4.93,0,0,1,.7-7l-.4.2c0-.1-6.7-10.6-13.5-14.7-1.4,2.7-3.1,5.4-4.8,8.2-.8,1.1-1.5,2.3-2.2,3.3a49.47,49.47,0,0,1,10.2,18.7,5,5,0,0,1,5.5,1.5,5,5,0,1,1-7-.7,1.61,1.61,0,0,1,.7-.4,47.57,47.57,0,0,0-9.8-18.2c-2,2.8-4,5.4-6,7.7,4.9,7.2,5.7,17.4,5.8,19.4a5.73,5.73,0,0,1,3,1.7,4.47,4.47,0,0,1,1,3.8,48.75,48.75,0,0,1-9.9-1.3,5.32,5.32,0,0,1,1.7-3.1,4.82,4.82,0,0,1,3-1.1c-.1-2.1-1.1-11.6-5.4-18.5a90,90,0,0,1-9.7,9.8,22.1,22.1,0,0,1,1,9.3v.2l-1-.5a18.58,18.58,0,0,1-1.8,7.4"/><path class="cls-2" d="M161.22,98.82a1,1,0,0,0-1.2,1.6c19.7,13.8,19.9,27.7,19.8,27.8a.94.94,0,0,0,1,1c.3.1.4-.1.6-.2a1.23,1.23,0,0,0,.4-.8C181.82,127.72,181.92,113.22,161.22,98.82Z"/><path class="cls-2" d="M156,105.62a1.08,1.08,0,0,0,.2,1.4c8.3,5.8,12.2,11.6,14.1,15.5,1.9,4.1,2,6.9,1.9,7a.94.94,0,0,0,1,1c.3.1.4-.1.6-.2a1.23,1.23,0,0,0,.4-.8c0-.4,0-12.2-16.8-24.1A.9.9,0,0,0,156,105.62Z"/><path class="cls-4" d="M77.42,102.62c-1.8-4.6,2.2-10.6-7-18.6-8.8-7.7-3.9-16.4-3.9-16.4"/><path class="cls-5" d="M65.92,104.62c-1.4-3.6,1.7-8.3-5.5-14.5-6.8-6-3.1-12.9-3.1-12.9"/><path class="cls-6" d="M55.82,104.62c-.8-2.3,1.1-5.4-3.6-9.4-4.5-3.9-2-8.3-2-8.3"/><path class="cls-3" d="M165.72,98.32a33.16,33.16,0,0,0,3.4-16.9,108.71,108.71,0,0,0-20.7,32.5,36.33,36.33,0,0,0,10.9-6.8,15.29,15.29,0,0,0,3.5-3.9A39.83,39.83,0,0,0,165.72,98.32Z"/><path class="cls-2" d="M86.62,156.82l5.3-8.8-39.6-25.7a4.93,4.93,0,0,0-6.1.3,3.81,3.81,0,0,0-.9,1.3c-1.4,2.5-.3,6,2.2,7.6Z"/><path class="cls-7" d="M145.52,145.32a48.65,48.65,0,0,1,4.4,4.7c2.8,3.4,4.2,5.5,4.2,5.5l-8.5-.5,1.4,7.8-.8.8h-8.6l1.8,7.5a.78.78,0,0,0-.3.4l-8.9.5,3.3,7h0l-9,2.4,3.1,6.8-8.9,2.3,4.4,6.4-9.6,3.2,6.1,5.4-6.6,1.1,6,3a50.08,50.08,0,0,1-14.1-4.8c1.9-9.8,6.7-21.6,14.3-32.8,7.9-12,17.5-21.4,26.3-26.7"/><path class="cls-2" d="M137.22,147.32a42.06,42.06,0,0,1,5.7-4c-.7-.5-1.5-1.1-2.3-1.6a49.2,49.2,0,0,0-4.3-2.6,22.71,22.71,0,0,0,.7,8.4Z"/><path class="cls-2" d="M156.22,158.72c-7.4,5.6-14.7,13.6-20.9,22.9a92.73,92.73,0,0,0-13.2,28.3c13.4,1.3,26.1-3.6,33.4-14.3s7.1-24.7.7-36.9"/><path class="cls-2" d="M91.52,179.92c-.2.1-.3.4-.5.5a5.14,5.14,0,1,1,1.1-1.3c1.3,1.7,7.6,9.5,13.2,12.8a118.63,118.63,0,0,1,5.8-12.8c-6.8-4.4-13.1-14.8-13.6-15.2a5,5,0,0,1-6.6-1.1,7.07,7.07,0,0,1-1.1-2.5,112.55,112.55,0,0,1-9.9,11.4c1.8,11.3,8.7,22.5,19.8,30.1.7.4,1.4,1,2.1,1.4a71.8,71.8,0,0,1,2.9-10.2C99.32,189.62,93.22,182,91.52,179.92Z"/><path class="cls-2" d="M137.32,131.22a14.43,14.43,0,0,0-2,6.8,43.83,43.83,0,0,0-9.1-3.5,5.05,5.05,0,0,0-1-3.9,5.05,5.05,0,0,0-8.9,2.4,36.93,36.93,0,0,0-11.5,1.2A102.75,102.75,0,0,1,94,154.52a6.2,6.2,0,0,1,5.1,2.1,5,5,0,0,1-.8,7l.4-.2c0,.1,6.5,10.7,13.2,15,1.4-2.7,3.2-5.4,5-8.2.8-1.1,1.5-2.3,2.2-3.3a47.36,47.36,0,0,1-9.8-18.9,4.94,4.94,0,1,1,1.5-.8,1.61,1.61,0,0,1-.7.4,48.2,48.2,0,0,0,9.5,18.4c2-2.8,4.1-5.3,6.1-7.6-4.8-7.3-5.4-17.5-5.5-19.5a5.12,5.12,0,0,1-2.9-1.7,4.83,4.83,0,0,1-1-3.8,49.87,49.87,0,0,1,9.8,1.5,5.24,5.24,0,0,1-1.8,3.1,4.72,4.72,0,0,1-3,1c.1,2.1.9,11.6,5.1,18.5a110.38,110.38,0,0,1,9.9-9.6,22.53,22.53,0,0,1-.8-9.3v-.2l1,.5c-.1-2.9,1.3-6,1.9-7.3"/><path class="cls-2" d="M87.92,150.62a1,1,0,1,0,1.2-1.6c-19.4-14.2-19.4-28-19.3-28.1a1.09,1.09,0,0,0-1-1.1c-.3-.1-.4.1-.6.2a1.23,1.23,0,0,0-.4.8C67.72,121.32,67.42,135.82,87.92,150.62Z"/><path class="cls-2" d="M93.22,143.82a1.08,1.08,0,0,0-.2-1.4c-8.2-6-12-11.8-13.8-15.8a18.83,18.83,0,0,1-1.8-7,1.09,1.09,0,0,0-1-1.1c-.3-.1-.4.1-.6.2a1.23,1.23,0,0,0-.4.8c0,.4-.2,12.2,16.4,24.3A.8.8,0,0,0,93.22,143.82Z"/><path class="cls-8" d="M172.12,151c1.3,4.7-3.1,10.3,5.3,19.2,8,8.5,2.4,16.7,2.4,16.7"/><path class="cls-9" d="M183.72,150.12c1.1,3.7-2.4,8.1,4.1,14.9,6.3,6.6,1.9,13.1,1.9,13.1"/><path class="cls-10" d="M193.82,151c.6,2.4-1.6,5.3,2.7,9.7,4.1,4.3,1.2,8.5,1.2,8.5"/><path class="cls-7" d="M83.42,150.92a33.19,33.19,0,0,0-3.7,16.9,112.29,112.29,0,0,0,11.7-14.5,109.17,109.17,0,0,0,9.6-17.6,37.47,37.47,0,0,0-11,6.6,16.94,16.94,0,0,0-3.6,3.8A31,31,0,0,0,83.42,150.92Z"/></g></g></svg>