<?xml version="1.0" encoding="utf-8"?>
<!-- Generator: Adobe Illustrator 21.0.0, SVG Export Plug-In . SVG Version: 6.00 Build 0)  -->
<svg version="1.1" id="Capa_1" xmlns="http://www.w3.org/2000/svg" xmlns:xlink="http://www.w3.org/1999/xlink" x="0px" y="0px"
	 viewBox="0 0 512 512" style="enable-background:new 0 0 512 512;" xml:space="preserve">
<style type="text/css">
	.st0{opacity:0.4;fill:#CAFAFF;}
	.st1{fill:none;}
	.st2{fill:#EF4836;}
	.st3{fill:#5C546A;}
	.st4{fill:#888693;}
	.st5{fill:#B6B8BE;}
	.st6{fill:#D5D9DE;}
	.st7{fill:#E3E6E9;}
	.st8{fill:#DB3F33;}
</style>
<circle class="st0" cx="-437.3" cy="166.3" r="350"/>
<g>
	<path class="st1" d="M-414.1,110.4L-414.1,110.4C-414,110.4-414,110.4-414.1,110.4z"/>
	<path class="st2" d="M-377,46.3c2.8-4.8,6.8-8.9,11.7-11.7c-1.8-84.4-65.2-121.7-68-123.3c-1.2-0.7-2.6-1.1-4-1.1v136h60.3V46.3z"
		/>
	<path class="st2" d="M-497.6,46.3h60.3v-136c-1.4,0-2.7,0.4-4,1.1c-2.7,1.6-66.2,38.9-68,123.3C-504.4,37.5-500.4,41.5-497.6,46.3z
		"/>
	<path class="st3" d="M-437.3,62.3v-16h-60.3c2.7,4.7,4.3,10.2,4.3,16v16V171c0.1-0.1,0.3-0.3,0.4-0.4l15.6-15.6v-52.7
		C-477.3,80.3-459.3,62.3-437.3,62.3z"/>
	<path class="st4" d="M-349.3,251c0.1,0.1,0.3,0.3,0.4,0.4l31.2,31.2c0.1,0.1,0.3,0.3,0.4,0.4V78.3h-32V251L-349.3,251z"/>
	<path class="st5" d="M-317.3,78.3v-16c0-17.6-14.4-32-32-32v48H-317.3z"/>
	<path class="st4" d="M-525.3,78.3V251c10.3-10.5,16-24.4,16-39.2v-1.6c0-14.8,5.7-28.6,16-39.2V78.3H-525.3L-525.3,78.3z"/>
	<path class="st3" d="M-525.7,251.4c0.1-0.1,0.3-0.3,0.4-0.4V78.3h-32V283c0.1-0.1,0.3-0.3,0.4-0.4L-525.7,251.4z"/>
	<path class="st3" d="M-381.3,78.3V171c10.3,10.5,16,24.4,16,39.2v1.6c0,14.8,5.7,28.6,16,39.2V78.3H-381.3z"/>
	<path class="st5" d="M-493.3,78.3v-16c0-5.8-1.6-11.3-4.3-16c-2.8-4.8-6.8-8.9-11.7-11.7c-4.7-2.7-10.2-4.3-16-4.3v48H-493.3z"/>
	<path class="st3" d="M-549,400.3c0.9,3.6,4.1,6.1,7.8,6.1h32c3.7,0,6.9-2.5,7.8-6.1l6.5-25.9h-60.5L-549,400.3z"/>
	<path class="st3" d="M-373,400.3c0.9,3.6,4.1,6.1,7.8,6.1h32c3.7,0,6.9-2.5,7.8-6.1l6.5-25.9h-60.5L-373,400.3z"/>
	<path class="st6" d="M-485.2,326.3c0.3-4.2,3.8-7.4,8-7.4l0,0V155l-15.6,15.6c-0.1,0.1-0.3,0.3-0.4,0.4c-10.3,10.5-16,24.4-16,39.2
		v1.6c0,14.8-5.7,28.6-16,39.2c-0.1,0.1-0.3,0.3-0.4,0.4l-31.2,31.2c-0.1,0.1-0.3,0.3-0.4,0.4c-10.3,10.5-16,24.4-16,39.2v12.1h87.3
		L-485.2,326.3z"/>
	<path class="st2" d="M-573.3,334.3v32c0,4.4,3.6,8,8,8h9.8h60.5h5.4l3.7-40H-573.3z"/>
	<path class="st6" d="M-317.3,283c-0.1-0.1-0.3-0.3-0.4-0.4l-31.2-31.2c-0.1-0.1-0.3-0.3-0.4-0.4c-10.3-10.5-16-24.4-16-39.2v-1.6
		c0-14.8-5.7-28.6-16-39.2c-0.1-0.1-0.3-0.3-0.4-0.4l-15.6-15.6v164l0,0c4.2,0,7.7,3.2,8,7.4l0.7,8h87.3v-12.1
		C-301.3,307.5-306.9,293.6-317.3,283z"/>
	<path class="st2" d="M-384.9,374.3h5.4h60.5h9.8c4.4,0,8-3.6,8-8v-32h-87.3L-384.9,374.3z"/>
	<path class="st7" d="M-437.3,62.3c-22.1,0-40,17.9-40,40V155v164h16V158.3v-44.2c0,0,0,0,0-0.1c0-1.3,0.3-2.5,0.8-3.7
		c0.8-1.6,2.1-3,3.9-3.8c12.6-5.7,26-5.7,38.6,0c1.8,0.8,3.1,2.1,3.9,3.8c0.1,0,0.1,0,0,0.1c0.5,1.1,0.8,2.3,0.8,3.6c0,0,0,0,0,0.1
		v44.2V319h16V155v-52.7C-397.3,80.3-415.2,62.3-437.3,62.3z"/>
	<path class="st6" d="M-413.3,114.1c0,1-0.3,2.1-0.7,3.1c-1.3,3-4.3,4.7-7.3,4.7c-1.1,0-2.2-0.2-3.3-0.7c-8.4-3.8-17-3.8-25.4,0
		c-4.1,1.8-8.8,0-10.6-4c-0.5-1-0.7-2-0.7-3.1v44.2V319h16v-40.6c0-4.4,3.6-8,8-8s8,3.6,8,8V319h16V158.3V114.1z"/>
	<path class="st5" d="M-389.3,326.3c-0.3-4.2-3.8-7.4-8-7.4l0,0h-16h-16v63.4h45.1l-0.7-8l-3.7-40L-389.3,326.3z"/>
	<path class="st4" d="M-445.3,319h-16h-16l0,0c-4.2,0-7.7,3.2-8,7.4l-0.7,8l-3.7,40l-0.7,8h45.1L-445.3,319L-445.3,319z"/>
	<path class="st3" d="M-450,121.2c8.4-3.8,17-3.8,25.4,0c1.1,0.5,2.2,0.7,3.3,0.7c3.1,0,6-1.8,7.3-4.7c0.5-1,0.7-2,0.7-3.1
		c0,0,0,0,0-0.1c0-1.3-0.3-2.5-0.8-3.6v-0.1c-0.8-1.6-2.1-3-3.9-3.8c-12.6-5.7-26-5.7-38.6,0c-1.8,0.8-3.1,2.1-3.9,3.8
		c-0.6,1.1-0.8,2.4-0.8,3.7c0,0,0,0,0,0.1c0,1,0.3,2.1,0.7,3.1C-458.7,121.2-454,123-450,121.2z"/>
	<path class="st4" d="M-377,46.3h-60.3v16c22.1,0,40,17.9,40,40V155l15.6,15.6c0.1,0.1,0.3,0.3,0.4,0.4V78.3h32v-48
		c-5.8,0-11.3,1.6-16,4.3C-370.1,37.5-374.2,41.5-377,46.3z"/>
	<path class="st4" d="M-525.3,30.3c-17.6,0-32,14.4-32,32v16h32V30.3z"/>
	<path class="st4" d="M-429.3,390.3c0,4.4-3.6,8-8,8v24h48c2.2,0,4.4-0.9,5.9-2.6c1.5-1.6,2.3-3.8,2.1-6.1l-2.9-31.4l0,0h-45.1
		V390.3L-429.3,390.3z"/>
	<path class="st3" d="M-445.3,390.3v-8h-45.1l0,0l-2.9,31.4c-0.2,2.2,0.6,4.4,2.1,6.1c1.5,1.6,3.6,2.6,5.9,2.6h48v-24
		C-441.7,398.3-445.3,394.8-445.3,390.3z"/>
	<path class="st8" d="M-437.3,270.3c-4.4,0-8,3.6-8,8V319v63.4v8c0,4.4,3.6,8,8,8s8-3.6,8-8v-8V319v-40.6
		C-429.3,273.9-432.8,270.3-437.3,270.3z"/>
</g>
</svg>
