<?xml version="1.0" encoding="utf-8"?>
<!-- Generator: Adobe Illustrator 21.0.0, SVG Export Plug-In . SVG Version: 6.00 Build 0)  -->
<svg version="1.1" id="Layer_1" xmlns="http://www.w3.org/2000/svg" xmlns:xlink="http://www.w3.org/1999/xlink" x="0px" y="0px"
	 viewBox="0 0 505 505" style="enable-background:new 0 0 505 505;" xml:space="preserve">
<style type="text/css">
	.st0{fill:#BCA3A2;}
	.st1{fill:#878383;}
</style>
<rect x="-721" y="-6.7" style="fill:none;" width="487" height="79.4"/>
<text transform="matrix(1 0 0 1 -716.8965 3.2191)"><tspan x="0" y="0" style="fill:#FFFFFF; font-family:'MyriadPro-Regular'; font-size:14px;">Lorem ipsum dolor sit amet, consectetuer adipiscing elit, sed diam nonummy nibh </tspan><tspan x="1.9" y="16.8" style="fill:#FFFFFF; font-family:'MyriadPro-Regular'; font-size:14px;">euismod tincidunt ut laoreet dolore magna aliquam erat volutpat. Ut wisi enim ad </tspan><tspan x="16.9" y="33.6" style="fill:#FFFFFF; font-family:'MyriadPro-Regular'; font-size:14px;">minim veniam, quis nostrud exerci tation ullamcorper suscipit lobortis nisl ut </tspan><tspan x="137.4" y="50.4" style="fill:#FFFFFF; font-family:'MyriadPro-Regular'; font-size:14px;">aliquip ex ea commodo consequat.</tspan></text>
<rect x="-653.2" y="-38.5" style="fill:none;" width="351.5" height="26.4"/>
<text transform="matrix(1 0 0 1 -566.3559 -28.5726)" style="fill:#FFFFFF; font-family:'MyriadPro-Regular'; font-size:14px;">UI /  UX / Web Design / NodeJs</text>
<rect x="-653.2" y="-64.9" style="fill:none;" width="351.5" height="26.4"/>
<text transform="matrix(1 0 0 1 -586.0141 -47.8891)" style="fill:#FFFFFF; font-family:'MyriadPro-Regular'; font-size:24px;">What? When? Where?</text>
<g>
	<g>
		<defs>
			<path id="SVGID_1_" d="M-1135.4-104.4v224.6c2.2,0,317.1,0,371.6,0c4.4,0,8-3.6,8-8c0-40.1,0-216.6,0-216.6H-1135.4z"/>
		</defs>
		<clipPath id="SVGID_2_">
			<use xlink:href="#SVGID_1_"  style="overflow:visible;"/>
		</clipPath>
		<g transform="matrix(1 0 0 1 0 7.629395e-06)" style="clip-path:url(#SVGID_2_);">
			
				<image style="overflow:visible;" width="600" height="338" xlink:href="portofolio_3.jpg"  transform="matrix(0.6327 0 0 0.6646 -1135.4216 -104.3767)">
			</image>
		</g>
	</g>
	<path class="st0" d="M-755.8-104.4c0,0.1,0,0.1,0-12c0-4.4-3.6-8-8-8l-371.6,0v20L-755.8-104.4z"/>
	<g>
		<circle class="st1" cx="-774.5" cy="-114.4" r="3"/>
		<circle class="st1" cx="-785.3" cy="-114.4" r="3"/>
	</g>
	<circle class="st1" cx="-796" cy="-114.4" r="3"/>
</g>
<g>
	<g>
		<defs>
			<path id="SVGID_3_" d="M-1606.4-104.4v224.6c2.2,0,317.1,0,371.6,0c4.4,0,8-3.6,8-8c0-40.1,0-216.6,0-216.6H-1606.4z"/>
		</defs>
		<clipPath id="SVGID_4_">
			<use xlink:href="#SVGID_3_"  style="overflow:visible;"/>
		</clipPath>
		<g style="clip-path:url(#SVGID_4_);">
			
				<image style="overflow:visible;" width="788" height="518" xlink:href="portofolio_2.jpg"  transform="matrix(0.4817 0 0 0.4336 -1606.4216 -104.3741)">
			</image>
		</g>
	</g>
	<path class="st0" d="M-1226.8-104.4c0,0.1,0,0.1,0-12c0-4.4-3.6-8-8-8l-371.6,0v20L-1226.8-104.4z"/>
	<g>
		<circle class="st1" cx="-1245.5" cy="-114.4" r="3"/>
		<circle class="st1" cx="-1256.3" cy="-114.4" r="3"/>
	</g>
	<circle class="st1" cx="-1267" cy="-114.4" r="3"/>
</g>
<image style="overflow:visible;" width="1121" height="854" xlink:href="portofolio_1.jpg"  transform="matrix(0.3386 0 0 0.263 -1135.4216 227.2926)">
</image>
<g>
	<defs>
		<path id="SVGID_5_" d="M-1135.4,227.3v216.6c0,4.4,3.6,8,8,8c54.7,0,371.6,0,371.6,0c0-2.3,0-224.6,0-224.6H-1135.4z"/>
	</defs>
	<clipPath id="SVGID_6_">
		<use xlink:href="#SVGID_5_"  style="overflow:visible;"/>
	</clipPath>
</g>
<path class="st0" d="M-755.8,227.3c0,0.1,0,0.1,0-20l-371.6,0c-4.4,0-8,3.6-8,8v12L-755.8,227.3z"/>
<g>
	<circle class="st1" cx="-774.5" cy="217.3" r="3"/>
	<circle class="st1" cx="-785.3" cy="217.3" r="3"/>
</g>
<circle class="st1" cx="-796" cy="217.3" r="3"/>
</svg>
